<svg xmlns="http://www.w3.org/2000/svg" width="15" height="47" viewBox="0 0 15 47" fill="none">
          <path d="M3.91406 0.518855C3.91406 0.518855 4.62761 0 7.41758 0C10.2071 0 11.0506 0.648818 11.0506 0.648818L11.0396 3.63298H3.91406V0.518855Z" fill="black"></path>
          <path d="M14.9308 23.7099C14.9313 23.7094 14.9313 23.7084 14.9313 23.7074L14.9069 17.5738C14.8994 17.4105 14.8312 17.269 14.7082 17.161L14.4801 16.9777L14.6455 16.8966C14.7988 16.8124 14.8885 16.671 14.8974 16.4962C14.8974 16.4957 14.9114 14.5991 14.9114 13.1949C14.9114 12.4609 14.9084 11.8763 14.8949 11.7264C14.8003 10.8292 13.9513 9.93336 13.9464 9.91842C13.8901 9.85717 13.7925 9.73717 13.7437 9.66845L10.6191 5.26117C10.5907 5.2288 10.5474 5.09286 10.5514 5.04904V4.6721C10.5449 4.64372 10.5967 4.5267 10.6226 4.51276L10.9453 4.21947C10.9896 4.17516 11.0384 4.12735 11.0434 4.02378C11.0314 3.83954 10.8586 3.80469 10.7859 3.80469H4.10354C4.05325 3.80568 4.00196 3.81166 3.9447 3.84552C3.88793 3.87639 3.83664 3.95855 3.84063 4.03175C3.84361 4.12188 3.88444 4.17466 3.92328 4.21898L4.24695 4.56504C4.27433 4.58596 4.32463 4.71094 4.31865 4.7448L4.31915 5.03211C4.31716 5.04805 4.31815 5.06149 4.31915 5.07046C4.31516 5.12174 4.27583 5.23179 4.25043 5.25768C4.24695 5.26216 1.21199 9.1725 0.754382 9.76157C0.254448 10.4149 0.0970999 11.5566 0.0911246 11.5696C0.0756884 11.6742 0.0632389 11.828 0.0617451 11.9341L0.000497668 16.0929C-2.73551e-07 16.1004 0 16.1063 0 16.1103L0.000497668 16.1123C0.00497914 16.2607 0.0542767 16.4036 0.143408 16.5221L0.452132 16.9075C0.45263 16.9075 0.459601 16.9215 0.458605 16.9364C0.458605 16.9518 0.453128 16.9643 0.452132 16.9648L0.205153 17.282C0.117018 17.402 0.0677195 17.5474 0.0632381 17.6958L0.0627404 39.9966C0.0632383 40.0887 0.0612471 40.2436 0.0582595 40.3352L0.00199257 42.3409C8.05292e-07 42.3598 0.00348667 42.3643 0.0014949 42.3643C0.00298873 42.4918 0.0308737 42.6347 0.0806679 42.7512C0.0806679 42.7512 0.342086 43.3517 0.653797 44.003C0.971982 44.6593 1.31257 45.3415 1.55258 45.591C1.83243 45.8509 2.4932 46.0267 3.13554 46.1935C3.76992 46.3508 4.35201 46.4579 4.35351 46.4589C4.43467 46.4718 4.53426 46.4793 4.62837 46.4793C4.66721 46.4793 4.70406 46.4788 4.73991 46.4758L7.86798 46.18C7.91479 46.1751 7.98948 46.1721 8.05869 46.1721C8.1045 46.1721 8.14882 46.1736 8.18118 46.1765L9.67103 46.2836C9.75817 46.2896 9.91253 46.307 9.99867 46.32C10.0061 46.3214 10.2088 46.3518 10.5355 46.3518C11.124 46.3508 12.1194 46.2527 13.0839 45.6831C14.6285 44.746 14.9627 42.1437 14.9751 42.1293C14.9885 42.0247 14.9995 41.8738 14.9995 41.7668L15 41.7633L14.9308 23.7099ZM0.407317 26.116C0.536284 26.2335 0.741934 26.2907 0.988415 26.3719C2.17601 26.6981 4.87884 26.8873 8.17272 26.8883H8.4426C10.1904 26.8883 11.7713 26.7922 12.9226 26.6353C13.4987 26.5566 13.9658 26.4635 14.3019 26.3555C14.4109 26.3146 14.5105 26.2788 14.5977 26.2375L14.6046 28.1172C14.4348 28.2452 13.6451 28.4916 12.6462 28.6007C11.5373 28.7386 10.0564 28.8228 8.43015 28.8218L8.16027 28.8228C5.9753 28.8228 4.04677 28.7366 2.67146 28.5863C1.9848 28.5116 1.43407 28.4194 1.06759 28.3184C0.884843 28.2676 0.747411 28.2138 0.67023 28.1675C0.640851 28.1506 0.485991 28.0669 0.407814 28.0251L0.407317 26.116ZM0.975965 28.6505C2.16356 28.9766 4.86639 29.1659 8.16027 29.1669H8.43015C10.1779 29.1669 11.7589 29.0708 12.9101 28.9139C13.4863 28.8352 13.9533 28.7421 14.2894 28.6341C14.407 28.5897 14.5145 28.5519 14.6066 28.5066L14.6136 30.2753C14.4204 30.4057 13.6401 30.6443 12.6637 30.7508C11.5547 30.8887 10.0739 30.9729 8.44758 30.9719L8.1777 30.9729C5.99273 30.9729 4.0642 30.8867 2.68889 30.7364C2.00222 30.6617 1.4515 30.5696 1.08502 30.4685C0.902271 30.4177 0.764839 30.3639 0.687658 30.3176C0.65579 30.2992 0.477028 30.2031 0.408312 30.1662V28.408C0.536781 28.5165 0.737451 28.5718 0.975965 28.6505ZM0.407317 34.8852C0.536284 35.0027 0.741934 35.06 0.988415 35.1412C2.17601 35.4673 4.87884 35.6565 8.17272 35.6575H8.4426C10.1904 35.6575 11.7713 35.5614 12.9226 35.4046C13.4987 35.3259 13.9658 35.2328 14.3019 35.1247C14.4249 35.0784 14.5369 35.0391 14.6315 34.9913L14.639 36.9248C14.4846 37.0513 13.6874 37.3027 12.6746 37.4133C11.5657 37.5512 10.0848 37.6354 8.45854 37.6344L8.18865 37.6354C6.00368 37.6354 4.07516 37.5492 2.69984 37.3988C2.01318 37.3241 1.46246 37.232 1.09597 37.1309C0.913225 37.0801 0.775793 37.0264 0.698612 36.9801C0.664752 36.9606 0.465078 36.8536 0.407317 36.8222V34.8852ZM14.63 34.5969C14.4971 34.7204 13.6899 34.9788 12.6587 35.0919C11.5498 35.2298 10.0689 35.314 8.4426 35.313L8.17272 35.314C5.98775 35.314 4.05922 35.2278 2.68391 35.0774C1.99724 35.0027 1.44652 34.9106 1.08004 34.8095C0.897292 34.7587 0.75986 34.705 0.682679 34.6587C0.651309 34.6407 0.479518 34.5481 0.407814 34.5098V32.7187C0.535288 32.8476 0.746913 32.9069 1.00534 32.992C2.19294 33.3182 4.89577 33.5074 8.18965 33.5084H8.45953C10.2073 33.5084 11.7883 33.4123 12.9395 33.2555C13.5156 33.1763 13.9827 33.0837 14.3188 32.9756C14.4313 32.9333 14.5349 32.8964 14.6241 32.8531L14.63 34.5969ZM12.6746 32.9423C11.5657 33.0802 10.0848 33.1643 8.45854 33.1633L8.18865 33.1643C6.00368 33.1643 4.07516 33.0782 2.69984 32.9278C2.01318 32.8531 1.46246 32.761 1.09597 32.6599C0.913225 32.6091 0.775793 32.5554 0.698612 32.509C0.664752 32.4896 0.465078 32.3826 0.407317 32.3512V30.5387C0.535786 30.6592 0.742929 30.717 0.992896 30.7991C2.18049 31.1253 4.88332 31.3145 8.1772 31.3155H8.44709C10.1949 31.3155 11.7758 31.2194 12.9271 31.0625C13.5032 30.9838 13.9703 30.8907 14.3064 30.7827C14.4204 30.7399 14.5245 30.7025 14.6151 30.6592L14.6221 32.4697C14.4199 32.6012 13.6426 32.8367 12.6746 32.9423ZM14.5957 25.856C14.3806 25.988 13.6122 26.218 12.6587 26.3226C11.5498 26.4605 10.0689 26.5447 8.4426 26.5437L8.17272 26.5447C5.98775 26.5447 4.05922 26.4586 2.68391 26.3082C1.99724 26.2335 1.44652 26.1414 1.08004 26.0403C0.897292 25.9895 0.75986 25.9357 0.682679 25.8894C0.651309 25.8715 0.479518 25.7789 0.407814 25.7405V23.9494C0.535288 24.0784 0.746913 24.1376 1.00534 24.2228C2.19294 24.5489 4.89577 24.7382 8.18965 24.7392H8.45953C10.2073 24.7392 11.7883 24.6431 12.9395 24.4862C13.5156 24.4075 13.9827 24.3144 14.3188 24.2064C14.4174 24.169 14.5085 24.1357 14.5902 24.0993L14.5957 25.856ZM12.6746 24.1735C11.5657 24.3114 10.0848 24.3956 8.45854 24.3946L8.18865 24.3956C6.00368 24.3956 4.07516 24.3094 2.69984 24.1591C2.01318 24.0844 1.46246 23.9922 1.09597 23.8912C0.913225 23.8404 0.775793 23.7866 0.698612 23.7403C0.664752 23.7209 0.465078 23.6138 0.407317 23.5824V21.8222C0.535786 21.9089 0.715543 21.9611 0.926172 22.0304C2.11376 22.3565 4.81659 22.5457 8.11048 22.5467H8.38036C10.1281 22.5467 11.7091 22.4506 12.8603 22.2938C13.4365 22.2151 13.9035 22.122 14.2396 22.0139C14.3676 21.9661 14.4836 21.9248 14.5807 21.874L14.5877 23.7199C14.3477 23.8528 13.6008 24.0719 12.6746 24.1735ZM14.5787 21.4756C14.4821 21.5947 13.6566 21.865 12.5964 21.9811C11.4875 22.119 10.0066 22.2031 8.38036 22.2021L8.11048 22.2031C5.92551 22.2031 3.99698 22.117 2.62166 21.9666C1.935 21.8919 1.38428 21.7998 1.01779 21.6987C0.83505 21.6479 0.697616 21.5942 0.619937 21.5478C0.596036 21.5339 0.488481 21.4761 0.407317 21.4323V19.6616C0.536782 19.7553 0.722515 19.809 0.942107 19.8812C2.1302 20.2074 4.83253 20.3966 8.12641 20.3976H8.39629C10.1441 20.3976 11.725 20.3015 12.8763 20.1447C13.4524 20.066 13.9195 19.9729 14.2556 19.8648C14.3726 19.821 14.4801 19.7826 14.5723 19.7373L14.5787 21.4756ZM0.407317 37.1887C0.53479 37.3177 0.746416 37.3769 1.00485 37.4621C2.19244 37.7882 4.89527 37.9774 8.18915 37.9784H8.45903C10.2068 37.9784 11.7878 37.8823 12.939 37.7255C13.5151 37.6468 13.9822 37.5537 14.3183 37.4456C14.4378 37.4008 14.5479 37.362 14.641 37.3157L14.648 39.051C14.5728 39.167 13.7352 39.4444 12.6597 39.5624C11.5508 39.7003 10.0699 39.7845 8.4436 39.7835L8.17372 39.7845C5.98875 39.7845 4.06022 39.6983 2.6849 39.5479C1.99824 39.4733 1.44752 39.3811 1.08103 39.2801C0.898288 39.2293 0.760856 39.1755 0.683675 39.1292C0.652304 39.1113 0.480513 39.0186 0.40881 38.9803V37.1887H0.407317ZM0.411798 16.309C0.387399 16.2856 0.350054 16.184 0.344079 16.1322L0.404827 11.9411C0.405325 11.8574 0.418272 11.7035 0.430721 11.6219C0.430721 11.6214 0.472049 11.347 0.569646 10.9994C0.665251 10.6524 0.821604 10.2346 1.02626 9.97369C1.48436 9.38512 4.52231 5.4703 4.52231 5.4703C4.56712 5.40806 4.60198 5.34034 4.62538 5.26864L4.66223 5.07842C4.66372 5.06946 4.66372 5.06199 4.66273 5.05801H4.66223L4.66173 4.7463C4.65576 4.59094 4.59949 4.44853 4.49741 4.33101L4.32761 4.14976L10.5111 4.15076L10.3911 4.25881C10.2765 4.37135 10.2138 4.51326 10.2073 4.6731V5.05004C10.2118 5.19494 10.2571 5.34034 10.3388 5.46084L13.4634 9.86862C13.5241 9.95427 13.6207 10.0738 13.6924 10.1525C13.6924 10.1525 13.8906 10.3686 14.0997 10.6838C14.3099 10.998 14.5215 11.4098 14.5524 11.7593C14.5623 11.8629 14.5673 12.4704 14.5663 13.1959C14.5668 14.5976 14.5528 16.4908 14.5528 16.4937C14.5593 16.5077 14.5085 16.5883 14.4931 16.5883L14.2396 16.7128C14.1535 16.7517 14.0718 16.8458 14.0728 16.9618C14.0728 16.9683 14.0768 16.9733 14.0773 16.9797C13.9394 17.0982 13.2557 17.3158 12.3031 17.4249C11.254 17.5623 9.85178 17.6465 8.31264 17.6465H8.0562C5.98775 17.6465 4.1623 17.5608 2.86018 17.4109C2.20987 17.3363 1.69002 17.2446 1.34345 17.1436C1.17166 17.0933 1.04269 17.0395 0.970489 16.9937C0.950572 16.9812 0.866918 16.9429 0.797206 16.912C0.792226 16.8363 0.770814 16.7616 0.71853 16.6959L0.411798 16.309ZM0.476531 17.4961L0.694629 17.2158C0.818119 17.3338 1.0153 17.394 1.24884 17.4732C2.37817 17.8008 4.93709 17.9891 8.05769 17.9906H8.31414C9.96979 17.9906 11.4671 17.894 12.5581 17.7371C13.1043 17.6579 13.548 17.5653 13.8672 17.4568C14.03 17.3935 14.1739 17.3397 14.28 17.2591L14.4931 17.4299C14.5165 17.4403 14.5698 17.5514 14.5633 17.5758L14.5703 19.3494C14.3985 19.4779 13.6092 19.7234 12.6119 19.8324C11.503 19.9704 10.0221 20.0545 8.3958 20.0535L8.12591 20.0545C5.94094 20.0545 4.01242 19.9684 2.6371 19.818C1.95044 19.7433 1.39971 19.6512 1.03323 19.5501C0.850485 19.4993 0.713053 19.4455 0.635374 19.3992C0.609979 19.3843 0.489477 19.3196 0.406819 19.2747V17.6983C0.402338 17.6569 0.44765 17.524 0.476531 17.4961ZM14.6574 41.7693C14.6574 41.8519 14.647 42.0028 14.636 42.086C14.636 42.0845 14.5459 42.7114 14.28 43.4448C14.0166 44.1798 13.5704 45.0034 12.9101 45.3898C12.0218 45.9146 11.0877 46.0107 10.5364 46.0102C10.3836 46.0102 10.2626 46.0038 10.1799 45.9963C10.0973 45.9893 10.0524 45.9823 10.0524 45.9833C9.95187 45.9674 9.799 45.951 9.69692 45.9435L8.20807 45.837C8.16426 45.8335 8.11247 45.832 8.05969 45.832C7.98101 45.832 7.90035 45.834 7.83362 45.8414L4.70953 46.1362C4.69111 46.1382 4.66173 46.1392 4.62937 46.1392C4.55617 46.1392 4.46554 46.1317 4.41525 46.1228C4.41575 46.1228 3.84212 46.0172 3.21969 45.8628C2.60473 45.7179 1.91011 45.4839 1.79707 45.351C1.6447 45.2076 1.26726 44.496 0.965011 43.8581C0.656287 43.2128 0.397358 42.6178 0.396362 42.6168C0.373955 42.57 0.348061 42.449 0.346069 42.3822L0.402836 40.3486C0.405326 40.251 0.407317 40.0972 0.407317 40.0001V39.3567C0.536284 39.4743 0.741934 39.5315 0.988415 39.6127C2.17601 39.9388 4.87884 40.1281 8.17272 40.129H8.4426C10.1904 40.129 11.7713 40.0329 12.9226 39.8761C13.4987 39.7974 13.9658 39.7043 14.3019 39.5962C14.4328 39.547 14.5509 39.5051 14.649 39.4523L14.6579 41.7673C14.6579 41.7658 14.6574 41.7693 14.6574 41.7693Z" fill="black"></path>

        </svg>