<svg xmlns="http://www.w3.org/2000/svg" width="23" height="20" viewBox="0 0 23 20" fill="none" class="icon icon-hamburger">
<path d="M1.46853 2.93706H20.9091C21.7132 2.93706 22.3776 2.27266 22.3776 1.46853C22.3776 0.664398 21.7132 0 20.9091 0H1.46853C0.664398 0 0 0.664398 0 1.46853C0 2.27266 0.664398 2.93706 1.46853 2.93706Z" fill="black"></path>
<path d="M1.46853 11.4683H15.3147C16.1188 11.4683 16.7832 10.8039 16.7832 9.99978C16.7832 9.19565 16.1188 8.53125 15.3147 8.53125H1.46853C0.664398 8.53125 0 9.19565 0 9.99978C0 10.8039 0.664398 11.4683 1.46853 11.4683Z" fill="black"></path>
<path d="M20.9091 17.0625H1.46853C0.664398 17.0625 0 17.7269 0 18.531C0 19.3352 0.664398 19.9996 1.46853 19.9996H20.9091C21.7132 19.9996 22.3776 19.3352 22.3776 18.531C22.3776 17.7269 21.7132 17.0625 20.9091 17.0625Z" fill="black"></path>
</svg>