<svg xmlns="http://www.w3.org/2000/svg" width="25" height="27" viewBox="0 0 24 27" fill="none">
<path d="M4.66667 1L1 5.88889V23C1 23.6483 1.25754 24.2701 1.71596 24.7285C2.17438 25.1869 2.79614 25.4444 3.44444 25.4444H20.5556C21.2039 25.4444 21.8256 25.1869 22.284 24.7285C22.7425 24.2701 23 23.6483 23 23V5.88889L19.3333 1H4.66667Z" stroke="black" stroke-width="2" stroke-linecap="round" stroke-linejoin="round"></path>
<path d="M1 5.89062H23" stroke="black" stroke-width="2" stroke-linecap="round" stroke-linejoin="round"></path>
<path d="M16.8872 10.7812C16.8872 12.0779 16.3721 13.3214 15.4552 14.2382C14.5384 15.1551 13.2949 15.6701 11.9983 15.6701C10.7016 15.6701 9.45814 15.1551 8.5413 14.2382C7.62445 13.3214 7.10938 12.0779 7.10938 10.7812" stroke="black" stroke-width="2" stroke-linecap="round" stroke-linejoin="round"></path>
</svg>