<svg xmlns="http://www.w3.org/2000/svg" width="48" height="48" class="icon icon-twitter" viewBox="0 0 48 48" fill="none">
<circle cx="24" cy="24" r="23.5" stroke="#EF3133"></circle>
<path d="M19.8908 33.821C29.3595 33.821 34.5377 25.8474 34.5377 18.933C34.5377 18.7066 34.5331 18.4812 34.5231 18.2567C35.5306 17.5157 36.4002 16.5981 37.0909 15.5471C36.1685 15.964 35.1759 16.2445 34.1347 16.371C35.1975 15.7232 36.0134 14.6984 36.3984 13.4768C35.3879 14.0862 34.2824 14.5157 33.1296 14.747C32.1902 13.7299 30.8528 13.0938 29.3719 13.0938C26.5291 13.0938 24.2238 15.4371 24.2238 18.3256C24.2238 18.7362 24.269 19.1355 24.3574 19.5187C20.0789 19.2999 16.2851 17.2177 13.7461 14.0517C13.2888 14.8502 13.0482 15.7578 13.049 16.6816C13.049 18.497 13.9578 20.0996 15.3398 21.0372C14.5224 21.0118 13.7228 20.7874 13.0084 20.3828C13.0077 20.4047 13.0077 20.4261 13.0077 20.4496C13.0077 22.9837 14.7821 25.0995 17.1376 25.5789C16.6952 25.7013 16.2387 25.7633 15.7802 25.763C15.449 25.763 15.1263 25.7299 14.8127 25.6687C15.4681 27.7477 17.3684 29.2607 19.6216 29.3029C17.8596 30.7066 15.6402 31.5427 13.2279 31.5427C12.8176 31.5431 12.4076 31.5189 12 31.4702C14.2783 32.9546 16.9835 33.8207 19.8911 33.8207" fill="#EF3133"></path>
</svg>