<svg xmlns="http://www.w3.org/2000/svg" width="64" height="45" viewBox="0 0 64 45" fill="none">
          <path d="M8.52023 44.8609C7.97875 44.8609 7.44259 44.7541 6.94244 44.5467C6.44228 44.3392 5.98796 44.0351 5.60547 43.6519C5.22298 43.2686 4.91983 42.8136 4.71339 42.3131C4.50694 41.8125 4.40125 41.2761 4.40235 40.7346V39.1094H6.12866V40.7346C6.10929 41.0612 6.15689 41.3883 6.26853 41.6958C6.38017 42.0033 6.5535 42.2847 6.77787 42.5228C7.00224 42.7608 7.27291 42.9505 7.57326 43.0802C7.87361 43.2098 8.1973 43.2767 8.52444 43.2767C8.85158 43.2767 9.17526 43.2098 9.47561 43.0802C9.77596 42.9505 10.0466 42.7608 10.271 42.5228C10.4954 42.2847 10.6687 42.0033 10.7803 41.6958C10.892 41.3883 10.9396 41.0612 10.9202 40.7346V39.1094H12.6297V40.7346C12.6297 41.8261 12.1973 42.8731 11.4271 43.6464C10.6569 44.4198 9.61167 44.8565 8.52023 44.8609Z" fill="black"></path>
          <path d="M59.3001 39.98H4.69831C3.89876 39.98 3.13195 39.6624 2.56658 39.0971C2.00121 38.5317 1.68359 37.7649 1.68359 36.9653V21.917C1.69212 20.7094 2.07132 19.5336 2.7699 18.5486L7.91514 11.2812H56.0833L61.2285 18.5486C61.9271 19.5336 62.3063 20.7094 62.3149 21.917V36.9653C62.3149 37.7649 61.9972 38.5317 61.4319 39.0971C60.8665 39.6624 60.0997 39.98 59.3001 39.98ZM8.77408 12.9739L4.2099 19.5002C3.70922 20.2069 3.43868 21.0509 3.43516 21.917V36.9653C3.43739 37.3056 3.57411 37.6311 3.8155 37.8709C4.05688 38.1107 4.38332 38.2453 4.72358 38.2453H59.3001C59.4721 38.2509 59.6435 38.2221 59.8042 38.1604C59.9648 38.0987 60.1115 38.0054 60.2355 37.8861C60.3595 37.7668 60.4584 37.6238 60.5263 37.4657C60.5941 37.3076 60.6296 37.1374 60.6307 36.9653V21.917C60.6075 21.0435 60.3132 20.1989 59.7886 19.5002L55.1654 12.9739H8.77408Z" fill="black"></path>
          <path d="M61.3053 12.9599H55.1158L50.2317 3.89052C49.8872 3.2431 49.3727 2.70184 48.7436 2.32496C48.1145 1.94808 47.3945 1.74985 46.6611 1.75158H17.3392C16.6058 1.74985 15.8859 1.94808 15.2567 2.32496C14.6276 2.70184 14.1132 3.2431 13.7687 3.89052L8.88449 13.0021H2.69505C2.33721 13.001 1.98314 12.9289 1.65338 12.7899C1.32362 12.6509 1.02474 12.4479 0.774063 12.1925C0.523389 11.9371 0.325915 11.6345 0.193095 11.3022C0.0602755 10.97 -0.00524736 10.6146 0.000328153 10.2568V8.66523C0.00253938 8.2639 0.162948 7.87964 0.446734 7.59586C0.73052 7.31207 1.11478 7.15166 1.51611 7.14945H5.25504C5.53372 7.14945 5.80966 7.20434 6.06713 7.31099C6.32459 7.41763 6.55853 7.57394 6.75559 7.771C6.95264 7.96805 7.10895 8.20199 7.2156 8.45945C7.32224 8.71692 7.37713 8.99287 7.37713 9.27155V11.2252H7.84871L12.2445 3.04842C12.7369 2.12561 13.4713 1.35429 14.3688 0.817237C15.2664 0.280185 16.2932 -0.00232891 17.3392 1.44604e-05H46.6611C47.7 0.00528656 48.718 0.291397 49.6075 0.828045C50.4969 1.36469 51.2247 2.1319 51.7138 3.04842L56.1095 11.2421H56.5811V9.27155C56.5811 8.70873 56.8047 8.16897 57.2026 7.771C57.6006 7.37303 58.1404 7.14945 58.7032 7.14945H62.4842C62.8855 7.15166 63.2698 7.31207 63.5536 7.59586C63.8374 7.87964 63.9978 8.2639 64 8.66523V10.2568C64 10.9723 63.7164 11.6585 63.2113 12.1652C62.7061 12.6719 62.0207 12.9577 61.3053 12.9599ZM58.3495 11.2252H61.3053C61.436 11.2309 61.5664 11.2101 61.6888 11.1639C61.8112 11.1178 61.923 11.0474 62.0174 10.9569C62.1119 10.8664 62.187 10.7577 62.2383 10.6374C62.2896 10.5171 62.3159 10.3876 62.3158 10.2568V8.88418H58.7453C58.6937 8.88306 58.6424 8.89225 58.5945 8.91122C58.5465 8.93018 58.5028 8.95853 58.4659 8.99461C58.4291 9.0307 58.3998 9.07378 58.3798 9.12134C58.3598 9.16889 58.3495 9.21996 58.3495 9.27155V11.2252ZM1.72664 8.88418V10.2568C1.72664 10.5136 1.82866 10.76 2.01028 10.9416C2.19189 11.1232 2.43821 11.2252 2.69505 11.2252H5.65083V9.27155C5.65084 9.21996 5.64055 9.16889 5.62055 9.12134C5.60056 9.07378 5.57127 9.0307 5.53441 8.99461C5.49754 8.95853 5.45384 8.93018 5.40586 8.91122C5.35789 8.89225 5.30661 8.88306 5.25504 8.88418H1.72664Z" fill="black"></path>
          <path d="M49.6768 39.1003H47.9926V37.9719C47.9961 37.4723 47.8994 36.9771 47.7083 36.5155C47.5172 36.054 47.2355 35.6354 46.8799 35.2845C46.5243 34.9336 46.102 34.6575 45.6379 34.4726C45.1738 34.2876 44.6774 34.1976 44.1779 34.2077H19.8075C18.8159 34.2077 17.8649 34.6016 17.1637 35.3028C16.4625 36.004 16.0686 36.955 16.0686 37.9466V39.075H14.3086V37.9719C14.3119 37.2531 14.4568 36.542 14.7349 35.8791C15.013 35.2163 15.419 34.6147 15.9296 34.1088C16.4403 33.6029 17.0455 33.2025 17.7109 32.9305C18.3763 32.6585 19.0887 32.5202 19.8075 32.5235H44.1779C44.8967 32.5202 45.6092 32.6585 46.2745 32.9305C46.9399 33.2025 47.5452 33.6029 48.0558 34.1088C48.5664 34.6147 48.9724 35.2163 49.2505 35.8791C49.5287 36.542 49.6735 37.2531 49.6768 37.9719V39.1003Z" fill="black"></path>
          <path d="M55.4779 44.8609C54.3835 44.8609 53.334 44.4262 52.5601 43.6524C51.7863 42.8785 51.3516 41.829 51.3516 40.7346V39.1094H53.0358V40.7346C53.0164 41.0612 53.064 41.3883 53.1756 41.6958C53.2873 42.0033 53.4606 42.2847 53.685 42.5228C53.9093 42.7608 54.18 42.9505 54.4804 43.0802C54.7807 43.2098 55.1044 43.2767 55.4315 43.2767C55.7587 43.2767 56.0824 43.2098 56.3827 43.0802C56.6831 42.9505 56.9537 42.7608 57.1781 42.5228C57.4025 42.2847 57.5758 42.0033 57.6874 41.6958C57.7991 41.3883 57.8467 41.0612 57.8273 40.7346V39.1094H59.5115V40.7346C59.5139 41.8138 59.0927 42.8508 58.3383 43.6225C57.5839 44.3941 56.5568 44.8389 55.4779 44.8609Z" fill="black"></path>
          <path d="M14.5743 29.6861H11.2059C10.0169 29.6773 8.87962 29.1987 8.042 28.3547C7.20437 27.5108 6.73434 26.37 6.73438 25.1809V21.8125H10.1028C11.297 21.8147 12.4416 22.2901 13.286 23.1345C14.1304 23.9789 14.6058 25.1236 14.608 26.3177L14.5743 29.6861ZM8.41858 23.5557V25.1809C8.41857 25.9165 8.7102 26.622 9.22953 27.1429C9.74886 27.6638 10.4535 27.9576 11.1891 27.9598H12.8143V26.3346C12.8167 25.6084 12.5339 24.9104 12.0268 24.3907C11.5197 23.8709 10.8288 23.5711 10.1028 23.5557H8.41858Z" fill="black"></path>
          <path d="M52.7825 29.6693H49.4141V26.3009C49.4207 25.114 49.8945 23.9775 50.733 23.1374C51.5715 22.2973 52.7072 21.8213 53.894 21.8125H57.2624V25.1809C57.258 26.3685 56.7849 27.5063 55.9459 28.3468C55.1069 29.1874 53.97 29.6627 52.7825 29.6693ZM51.1572 27.9851H52.7825C53.1524 27.9874 53.519 27.9158 53.8609 27.7745C54.2028 27.6332 54.513 27.4251 54.7734 27.1624C55.0338 26.8996 55.2392 26.5875 55.3774 26.2444C55.5156 25.9012 55.5839 25.5339 55.5782 25.1641V23.5388H53.894C53.5295 23.5388 53.1685 23.6107 52.8319 23.7505C52.4952 23.8903 52.1894 24.0951 51.932 24.3532C51.6746 24.6114 51.4707 24.9178 51.332 25.2549C51.1933 25.592 51.1224 25.9532 51.1235 26.3177L51.1572 27.9851Z" fill="black"></path>
          <path d="M41.4568 28.3193H22.5601C21.7585 28.2777 21.0034 27.93 20.4507 27.3478C19.898 26.7657 19.5898 25.9936 19.5898 25.1909C19.5898 24.3882 19.898 23.6161 20.4507 23.034C21.0034 22.4519 21.7585 22.1041 22.5601 22.0625H41.4568C42.2585 22.1041 43.0136 22.4519 43.5663 23.034C44.119 23.6161 44.4271 24.3882 44.4271 25.1909C44.4271 25.9936 44.119 26.7657 43.5663 27.3478C43.0136 27.93 42.2585 28.2777 41.4568 28.3193ZM22.5601 23.8141C22.1894 23.8141 21.8338 23.9613 21.5716 24.2235C21.3095 24.4857 21.1622 24.8412 21.1622 25.212C21.1622 25.5827 21.3095 25.9383 21.5716 26.2004C21.8338 26.4626 22.1894 26.6098 22.5601 26.6098H41.4568C41.8276 26.6098 42.1831 26.4626 42.4453 26.2004C42.7075 25.9383 42.8547 25.5827 42.8547 25.212C42.8547 24.8412 42.7075 24.4857 42.4453 24.2235C42.1831 23.9613 41.8276 23.8141 41.4568 23.8141H22.5601Z" fill="black"></path>
          <path d="M8.52023 44.8609C7.97875 44.8609 7.44259 44.7541 6.94244 44.5467C6.44228 44.3392 5.98796 44.0351 5.60547 43.6519C5.22298 43.2686 4.91983 42.8136 4.71339 42.3131C4.50694 41.8125 4.40125 41.2761 4.40235 40.7346V39.1094H6.12866V40.7346C6.10929 41.0612 6.15689 41.3883 6.26853 41.6958C6.38017 42.0033 6.5535 42.2847 6.77787 42.5228C7.00224 42.7608 7.27291 42.9505 7.57326 43.0802C7.87361 43.2098 8.1973 43.2767 8.52444 43.2767C8.85158 43.2767 9.17526 43.2098 9.47561 43.0802C9.77596 42.9505 10.0466 42.7608 10.271 42.5228C10.4954 42.2847 10.6687 42.0033 10.7803 41.6958C10.892 41.3883 10.9396 41.0612 10.9202 40.7346V39.1094H12.6297V40.7346C12.6297 41.8261 12.1973 42.8731 11.4271 43.6464C10.6569 44.4198 9.61167 44.8565 8.52023 44.8609Z" fill="black"></path>
          <path d="M59.3001 39.98H4.69831C3.89876 39.98 3.13195 39.6624 2.56658 39.0971C2.00121 38.5317 1.68359 37.7649 1.68359 36.9653V21.917C1.69212 20.7094 2.07132 19.5336 2.7699 18.5486L7.91514 11.2812H56.0833L61.2285 18.5486C61.9271 19.5336 62.3063 20.7094 62.3149 21.917V36.9653C62.3149 37.7649 61.9972 38.5317 61.4319 39.0971C60.8665 39.6624 60.0997 39.98 59.3001 39.98ZM8.77408 12.9739L4.2099 19.5002C3.70922 20.2069 3.43868 21.0509 3.43516 21.917V36.9653C3.43739 37.3056 3.57411 37.6311 3.8155 37.8709C4.05688 38.1107 4.38332 38.2453 4.72358 38.2453H59.3001C59.4721 38.2509 59.6435 38.2221 59.8042 38.1604C59.9648 38.0987 60.1115 38.0054 60.2355 37.8861C60.3595 37.7668 60.4584 37.6238 60.5263 37.4657C60.5941 37.3076 60.6296 37.1374 60.6307 36.9653V21.917C60.6075 21.0435 60.3132 20.1989 59.7886 19.5002L55.1654 12.9739H8.77408Z" fill="black"></path>
          <path d="M61.3053 12.9599H55.1158L50.2317 3.89052C49.8872 3.2431 49.3727 2.70184 48.7436 2.32496C48.1145 1.94808 47.3945 1.74985 46.6611 1.75158H17.3392C16.6058 1.74985 15.8859 1.94808 15.2567 2.32496C14.6276 2.70184 14.1132 3.2431 13.7687 3.89052L8.88449 13.0021H2.69505C2.33721 13.001 1.98314 12.9289 1.65338 12.7899C1.32362 12.6509 1.02474 12.4479 0.774063 12.1925C0.523389 11.9371 0.325915 11.6345 0.193095 11.3022C0.0602755 10.97 -0.00524736 10.6146 0.000328153 10.2568V8.66523C0.00253938 8.2639 0.162948 7.87964 0.446734 7.59586C0.73052 7.31207 1.11478 7.15166 1.51611 7.14945H5.25504C5.53372 7.14945 5.80966 7.20434 6.06713 7.31099C6.32459 7.41763 6.55853 7.57394 6.75559 7.771C6.95264 7.96805 7.10895 8.20199 7.2156 8.45945C7.32224 8.71692 7.37713 8.99287 7.37713 9.27155V11.2252H7.84871L12.2445 3.04842C12.7369 2.12561 13.4713 1.35429 14.3688 0.817237C15.2664 0.280185 16.2932 -0.00232891 17.3392 1.44604e-05H46.6611C47.7 0.00528656 48.718 0.291397 49.6075 0.828045C50.4969 1.36469 51.2247 2.1319 51.7138 3.04842L56.1095 11.2421H56.5811V9.27155C56.5811 8.70873 56.8047 8.16897 57.2026 7.771C57.6006 7.37303 58.1404 7.14945 58.7032 7.14945H62.4842C62.8855 7.15166 63.2698 7.31207 63.5536 7.59586C63.8374 7.87964 63.9978 8.2639 64 8.66523V10.2568C64 10.9723 63.7164 11.6585 63.2113 12.1652C62.7061 12.6719 62.0207 12.9577 61.3053 12.9599ZM58.3495 11.2252H61.3053C61.436 11.2309 61.5664 11.2101 61.6888 11.1639C61.8112 11.1178 61.923 11.0474 62.0174 10.9569C62.1119 10.8664 62.187 10.7577 62.2383 10.6374C62.2896 10.5171 62.3159 10.3876 62.3158 10.2568V8.88418H58.7453C58.6937 8.88306 58.6424 8.89225 58.5945 8.91122C58.5465 8.93018 58.5028 8.95853 58.4659 8.99461C58.4291 9.0307 58.3998 9.07378 58.3798 9.12134C58.3598 9.16889 58.3495 9.21996 58.3495 9.27155V11.2252ZM1.72664 8.88418V10.2568C1.72664 10.5136 1.82866 10.76 2.01028 10.9416C2.19189 11.1232 2.43821 11.2252 2.69505 11.2252H5.65083V9.27155C5.65084 9.21996 5.64055 9.16889 5.62055 9.12134C5.60056 9.07378 5.57127 9.0307 5.53441 8.99461C5.49754 8.95853 5.45384 8.93018 5.40586 8.91122C5.35789 8.89225 5.30661 8.88306 5.25504 8.88418H1.72664Z" fill="black"></path>
          <path d="M49.6768 39.1003H47.9926V37.9719C47.9961 37.4723 47.8994 36.9771 47.7083 36.5155C47.5172 36.054 47.2355 35.6354 46.8799 35.2845C46.5243 34.9336 46.102 34.6575 45.6379 34.4726C45.1738 34.2876 44.6774 34.1976 44.1779 34.2077H19.8075C18.8159 34.2077 17.8649 34.6016 17.1637 35.3028C16.4625 36.004 16.0686 36.955 16.0686 37.9466V39.075H14.3086V37.9719C14.3119 37.2531 14.4568 36.542 14.7349 35.8791C15.013 35.2163 15.419 34.6147 15.9296 34.1088C16.4403 33.6029 17.0455 33.2025 17.7109 32.9305C18.3763 32.6585 19.0887 32.5202 19.8075 32.5235H44.1779C44.8967 32.5202 45.6092 32.6585 46.2745 32.9305C46.9399 33.2025 47.5452 33.6029 48.0558 34.1088C48.5664 34.6147 48.9724 35.2163 49.2505 35.8791C49.5287 36.542 49.6735 37.2531 49.6768 37.9719V39.1003Z" fill="black"></path>
          <path d="M55.4779 44.8609C54.3835 44.8609 53.334 44.4262 52.5601 43.6524C51.7863 42.8785 51.3516 41.829 51.3516 40.7346V39.1094H53.0358V40.7346C53.0164 41.0612 53.064 41.3883 53.1756 41.6958C53.2873 42.0033 53.4606 42.2847 53.685 42.5228C53.9093 42.7608 54.18 42.9505 54.4804 43.0802C54.7807 43.2098 55.1044 43.2767 55.4315 43.2767C55.7587 43.2767 56.0824 43.2098 56.3827 43.0802C56.6831 42.9505 56.9537 42.7608 57.1781 42.5228C57.4025 42.2847 57.5758 42.0033 57.6874 41.6958C57.7991 41.3883 57.8467 41.0612 57.8273 40.7346V39.1094H59.5115V40.7346C59.5139 41.8138 59.0927 42.8508 58.3383 43.6225C57.5839 44.3941 56.5568 44.8389 55.4779 44.8609Z" fill="black"></path>
          <path d="M14.5743 29.6861H11.2059C10.0169 29.6773 8.87962 29.1987 8.042 28.3547C7.20437 27.5108 6.73434 26.37 6.73438 25.1809V21.8125H10.1028C11.297 21.8147 12.4416 22.2901 13.286 23.1345C14.1304 23.9789 14.6058 25.1236 14.608 26.3177L14.5743 29.6861ZM8.41858 23.5557V25.1809C8.41857 25.9165 8.7102 26.622 9.22953 27.1429C9.74886 27.6638 10.4535 27.9576 11.1891 27.9598H12.8143V26.3346C12.8167 25.6084 12.5339 24.9104 12.0268 24.3907C11.5197 23.8709 10.8288 23.5711 10.1028 23.5557H8.41858Z" fill="black"></path>
          <path d="M52.7825 29.6693H49.4141V26.3009C49.4207 25.114 49.8945 23.9775 50.733 23.1374C51.5715 22.2973 52.7072 21.8213 53.894 21.8125H57.2624V25.1809C57.258 26.3685 56.7849 27.5063 55.9459 28.3468C55.1069 29.1874 53.97 29.6627 52.7825 29.6693ZM51.1572 27.9851H52.7825C53.1524 27.9874 53.519 27.9158 53.8609 27.7745C54.2028 27.6332 54.513 27.4251 54.7734 27.1624C55.0338 26.8996 55.2392 26.5875 55.3774 26.2444C55.5156 25.9012 55.5839 25.5339 55.5782 25.1641V23.5388H53.894C53.5295 23.5388 53.1685 23.6107 52.8319 23.7505C52.4952 23.8903 52.1894 24.0951 51.932 24.3532C51.6746 24.6114 51.4707 24.9178 51.332 25.2549C51.1933 25.592 51.1224 25.9532 51.1235 26.3177L51.1572 27.9851Z" fill="black"></path>
          <path d="M41.4568 28.3193H22.5601C21.7585 28.2777 21.0034 27.93 20.4507 27.3478C19.898 26.7657 19.5898 25.9936 19.5898 25.1909C19.5898 24.3882 19.898 23.6161 20.4507 23.034C21.0034 22.4519 21.7585 22.1041 22.5601 22.0625H41.4568C42.2585 22.1041 43.0136 22.4519 43.5663 23.034C44.1189 23.6161 44.4271 24.3882 44.4271 25.1909C44.4271 25.9936 44.1189 26.7657 43.5663 27.3478C43.0136 27.93 42.2585 28.2777 41.4568 28.3193ZM22.5601 23.8141C22.1894 23.8141 21.8338 23.9613 21.5716 24.2235C21.3095 24.4857 21.1622 24.8412 21.1622 25.212C21.1622 25.5827 21.3095 25.9383 21.5716 26.2004C21.8338 26.4626 22.1894 26.6098 22.5601 26.6098H41.4568C41.8276 26.6098 42.1831 26.4626 42.4453 26.2004C42.7075 25.9383 42.8547 25.5827 42.8547 25.212C42.8547 24.8412 42.7075 24.4857 42.4453 24.2235C42.1831 23.9613 41.8276 23.8141 41.4568 23.8141H22.5601Z" fill="black"></path>
        </svg>