<svg xmlns="http://www.w3.org/2000/svg" width="52" height="62" viewBox="0 0 52 62" fill="none">
          <path d="M27.9098 14.4845C22.3624 13.6862 16.9983 15.8649 13.5529 20.312C12.0888 22.2017 11.1051 24.4501 10.7064 26.8162C9.97683 31.1437 11.0492 35.4064 13.7273 38.818C14.5346 39.8436 15.3429 40.9429 16.1312 42.0851C17.0631 43.4346 17.5545 45.0302 17.5545 46.7006V47.8847C17.5545 49.6597 18.9986 51.1029 20.7727 51.1029H30.5051C32.2802 51.1029 33.7233 49.6587 33.7233 47.8847V46.7265C33.7233 45.0661 34.2157 43.4694 35.1475 42.109C35.9349 40.9608 36.6934 39.9153 37.404 39.0014C38.6648 37.3808 39.5707 35.7024 40.096 34.0141C41.4215 29.7564 40.8206 25.1578 38.4465 21.3964C36.0675 17.626 32.2263 15.1064 27.9098 14.4845ZM38.1943 33.4221C37.7399 34.8812 36.9455 36.3473 35.8313 37.7785C35.0967 38.7233 34.3143 39.8007 33.5041 40.9828C32.3439 42.6771 31.731 44.6625 31.731 46.7265V47.8847C31.731 48.5604 31.1808 49.1096 30.5061 49.1096H20.7737C20.0979 49.1096 19.5488 48.5594 19.5488 47.8847V46.7006C19.5488 44.6246 18.9348 42.6372 17.7727 40.9529C16.9614 39.7768 16.1282 38.6436 15.296 37.5861C12.9698 34.6221 12.0379 30.9155 12.6738 27.1481C13.0177 25.1049 13.8678 23.1624 15.1306 21.5339C17.7239 18.1881 21.563 16.3174 25.6703 16.3174C26.3171 16.3174 26.9709 16.3632 27.6277 16.4579C31.3652 16.9961 34.6961 19.1838 36.7641 22.4608C38.8541 25.7757 39.3634 29.6687 38.1943 33.4221ZM30.6556 60.7964C30.6556 61.3466 30.2091 61.7931 29.6589 61.7931H21.6188C21.0687 61.7931 20.6222 61.3466 20.6222 60.7964C20.6222 60.2463 21.0687 59.7998 21.6188 59.7998H29.6589C30.2091 59.7998 30.6556 60.2463 30.6556 60.7964ZM32.916 55.4513C32.916 56.0015 32.4695 56.448 31.9194 56.448H19.3594C18.8093 56.448 18.3628 56.0015 18.3628 55.4513C18.3628 54.9012 18.8093 54.4547 19.3594 54.4547H31.9204C32.4705 54.4547 32.916 54.9012 32.916 55.4513ZM24.6427 9.7663V0.996663C24.6427 0.446505 25.0892 0 25.6394 0C26.1895 0 26.636 0.446505 26.636 0.996663V9.7663C26.636 10.3165 26.1895 10.763 25.6394 10.763C25.0892 10.763 24.6427 10.3165 24.6427 9.7663ZM12.7406 9.10451C12.4655 8.62711 12.629 8.01815 13.1054 7.74307C13.5828 7.467 14.1907 7.63145 14.4668 8.10785L16.6595 11.9051C16.9345 12.3825 16.7711 12.9915 16.2947 13.2666C16.1372 13.3573 15.9658 13.4001 15.7973 13.4001C15.4525 13.4001 15.1176 13.2217 14.9332 12.9018L12.7406 9.10451ZM9.45458 20.1077C9.2692 20.4276 8.93532 20.606 8.59048 20.606C8.42204 20.606 8.25061 20.5631 8.09314 20.4725L0.498569 16.0881C0.0211677 15.813 -0.141288 15.2031 0.133791 14.7267C0.40887 14.2493 1.01683 14.0858 1.49523 14.3619L9.0898 18.7462C9.56621 19.0213 9.72966 19.6313 9.45458 20.1077ZM1.56899 30.448C1.01883 30.448 0.572324 30.0015 0.572324 29.4514C0.572324 28.9012 1.01883 28.4547 1.56899 28.4547H5.9533C6.50346 28.4547 6.94997 28.9012 6.94997 29.4514C6.94997 30.0015 6.50346 30.448 5.9533 30.448H1.56899ZM9.45458 38.7961C9.72966 39.2725 9.56621 39.8825 9.0898 40.1575L1.49523 44.5419C1.33876 44.6326 1.16633 44.6754 0.997897 44.6754C0.653051 44.6754 0.318174 44.497 0.133791 44.1771C-0.141288 43.7007 0.0221644 43.0907 0.498569 42.8156L8.09314 38.4313C8.56855 38.1552 9.17851 38.3197 9.45458 38.7961ZM51.145 44.1781C50.9596 44.498 50.6257 44.6764 50.2809 44.6764C50.1124 44.6764 49.941 44.6335 49.7835 44.5429L42.189 40.1585C41.7116 39.8835 41.5491 39.2735 41.8242 38.7971C42.0993 38.3207 42.7072 38.1562 43.1856 38.4323L50.7802 42.8166C51.2576 43.0917 51.4201 43.7007 51.145 44.1781ZM45.3245 30.448C44.7743 30.448 44.3278 30.0015 44.3278 29.4514C44.3278 28.9012 44.7743 28.4547 45.3245 28.4547H49.7088C50.259 28.4547 50.7055 28.9012 50.7055 29.4514C50.7055 30.0015 50.259 30.448 49.7088 30.448H45.3245ZM51.145 14.7257C51.4201 15.2031 51.2566 15.8121 50.7802 16.0871L43.1856 20.4715C43.0292 20.5621 42.8567 20.605 42.6883 20.605C42.3435 20.605 42.0086 20.4266 41.8242 20.1067C41.5491 19.6293 41.7126 19.0203 42.189 18.7452L49.7835 14.3609C50.2599 14.0858 50.8689 14.2493 51.145 14.7257ZM34.6183 11.9051L36.811 8.10785C37.0861 7.63045 37.694 7.467 38.1724 7.74307C38.6498 8.01815 38.8123 8.62811 38.5372 9.10451L36.3445 12.9018C36.1592 13.2217 35.8253 13.4001 35.4804 13.4001C35.312 13.4001 35.1406 13.3573 34.9831 13.2666C34.5067 12.9915 34.3432 12.3825 34.6183 11.9051Z" fill="black"></path>
        </svg>