<svg xmlns="http://www.w3.org/2000/svg" width="65" height="65" viewBox="0 0 65 65">
  <g id="Group_345" data-name="Group 345" transform="translate(129 -9224)">
    <rect id="Rectangle_128" data-name="Rectangle 128" width="65" height="65" transform="translate(-129 9224)" fill="none"/>
    <g id="Group_341" data-name="Group 341" transform="translate(-120.333 9230.5)">
      <g id="Group_156" data-name="Group 156" transform="translate(0 0)">
        <g id="Group_137" data-name="Group 137" transform="translate(4.017 13.826)">
          <g id="Group_136" data-name="Group 136">
            <path id="Path_9883" data-name="Path 9883" d="M-679.566-2747.677a19.211,19.211,0,0,1-19.189-19.19,19.144,19.144,0,0,1,4.994-12.912.673.673,0,0,1,.951-.044.672.672,0,0,1,.045.95,17.8,17.8,0,0,0-4.643,12.006,17.863,17.863,0,0,0,17.844,17.843,18.031,18.031,0,0,0,3.188-.283.672.672,0,0,1,.782.542.672.672,0,0,1-.542.782A19.3,19.3,0,0,1-679.566-2747.677Z" transform="translate(698.755 2779.999)" fill="#e82727"/>
          </g>
        </g>
        <g id="Group_139" data-name="Group 139" transform="translate(31.504 14.103)">
          <g id="Group_138" data-name="Group 138">
            <path id="Path_9884" data-name="Path 9884" d="M-595.974-2749.24a.674.674,0,0,1-.589-.346.674.674,0,0,1,.262-.916,17.869,17.869,0,0,0,9.2-15.613,17.832,17.832,0,0,0-4.406-11.74.672.672,0,0,1,.063-.949.673.673,0,0,1,.949.063,19.173,19.173,0,0,1,4.738,12.626,19.213,19.213,0,0,1-9.893,16.79A.661.661,0,0,1-595.974-2749.24Z" transform="translate(596.648 2778.971)" fill="#e82727"/>
          </g>
        </g>
        <g id="Group_141" data-name="Group 141" transform="translate(5.54 19.272)">
          <g id="Group_140" data-name="Group 140">
            <path id="Path_9885" data-name="Path 9885" d="M-686.43-2736.671a.646.646,0,0,1-.136-.014.672.672,0,0,1-.524-.794,6.326,6.326,0,0,0-.466-4.587,6.471,6.471,0,0,1-.7-2.572,8.565,8.565,0,0,1,1.5-4.336,5.022,5.022,0,0,0,.885-2.14c-.108-.577-1.482-1.037-2.392-1.341a6.056,6.056,0,0,1-1.654-.719c-.887-.689-2.617-4.5-3.125-5.649a.672.672,0,0,1,.343-.887.672.672,0,0,1,.887.344,27.061,27.061,0,0,0,2.721,5.131,6.123,6.123,0,0,0,1.255.5c1.351.453,3.033,1.017,3.287,2.37.171.911-.388,1.9-1.036,3.05a7.627,7.627,0,0,0-1.328,3.628,5.224,5.224,0,0,0,.585,2.073,7.627,7.627,0,0,1,.554,5.4A.672.672,0,0,1-686.43-2736.671Z" transform="translate(693.098 2759.769)" fill="#e82727"/>
          </g>
        </g>
        <g id="Group_143" data-name="Group 143" transform="translate(16.381 14.2)">
          <g id="Group_142" data-name="Group 142">
            <path id="Path_9886" data-name="Path 9886" d="M-639.158-2754.035a2.517,2.517,0,0,1-1.754-.617c-.992-.9-1.06-2.561-1.125-4.164-.023-.551-.046-1.121-.106-1.633a24.161,24.161,0,0,1-.124-2.525c-.021-1.579-.039-2.94-.693-3.675-.37-.416-1.655-.161-2.79.063-1.467.291-2.986.591-4.172.02-2.186-1.052-3.1-2.94-2.87-5.941.211-2.79,3.456-4.97,5.371-6.022a.672.672,0,0,1,.914.267.672.672,0,0,1-.266.913c-1.053.579-4.5,2.644-4.677,4.943-.185,2.442.447,3.826,2.112,4.628.78.375,2.133.109,3.326-.128,1.634-.324,3.176-.628,4.058.363.986,1.108,1.009,2.781,1.032,4.551a23.33,23.33,0,0,0,.114,2.386c.067.563.091,1.159.114,1.735.054,1.327.11,2.7.686,3.223a1.3,1.3,0,0,0,.987.262c2.426-.13,4.513-3.78,4.573-5.17a8.5,8.5,0,0,0-.217-1.768c-.27-1.435-.606-3.222.4-4.763,1.374-2.1,5.323-3.94,5.491-4.017a.672.672,0,0,1,.893.329.671.671,0,0,1-.328.892c-.038.018-3.767,1.756-4.929,3.533-.712,1.088-.454,2.455-.206,3.778a9.376,9.376,0,0,1,.24,2.075c-.09,2.053-2.679,6.285-5.846,6.457C-639.019-2754.037-639.089-2754.035-639.158-2754.035Z" transform="translate(652.826 2778.612)" fill="#e82727"/>
          </g>
        </g>
        <g id="Group_145" data-name="Group 145" transform="translate(0 11.482)">
          <g id="Group_144" data-name="Group 144">
            <path id="Path_9887" data-name="Path 9887" d="M-690.472-2750.024a23.233,23.233,0,0,1-23.207-23.207.673.673,0,0,1,.673-.673.673.673,0,0,1,.673.673,21.886,21.886,0,0,0,21.861,21.861,21.886,21.886,0,0,0,21.861-21.861,21.843,21.843,0,0,0-5.378-14.36.672.672,0,0,1,.065-.949.673.673,0,0,1,.949.063,23.194,23.194,0,0,1,5.71,15.246A23.234,23.234,0,0,1-690.472-2750.024Z" transform="translate(713.679 2788.707)" fill="#e82727"/>
          </g>
        </g>
        <g id="Group_147" data-name="Group 147" transform="translate(7.443 0)">
          <g id="Group_146" data-name="Group 146">
            <path id="Path_9888" data-name="Path 9888" d="M-682.525-2815.864a3.574,3.574,0,0,1-3.5-3.544c-.089-2.394,1.858-4.375,5.482-5.579,1.235-.411,2.475-.927,3.674-1.425l.052-.022,11.871-4.877a.676.676,0,0,1,.542.015.673.673,0,0,1,.356.407c.01.032,1.035,3.211,3.14,3.5l.328.045c2.389.332,3.395.4,4.21-1.139a3.466,3.466,0,0,1,1.148-1.329,1.654,1.654,0,0,1,1.7-.056,1.681,1.681,0,0,1,.874,1.489l-.089,10.4a2.022,2.022,0,0,1-2.008,2l-22.378.063-5.371.055Zm17.453-13.939-11.28,4.634c-1.221.509-2.485,1.035-3.768,1.461-1.741.577-4.649,1.9-4.561,4.251a2.264,2.264,0,0,0,2.158,2.247h.019l5.373-.054h.005l22.381-.063a.67.67,0,0,0,.666-.663l.089-10.4a.334.334,0,0,0-.177-.3.309.309,0,0,0-.324.008,2.169,2.169,0,0,0-.665.785l-.014.029c-1.29,2.453-3.285,2.177-5.593,1.857l-.326-.045C-663.319-2826.36-664.57-2828.635-665.072-2829.8Z" transform="translate(686.029 2831.36)" fill="#e82727"/>
          </g>
        </g>
        <g id="Group_149" data-name="Group 149" transform="translate(7.573 10.903)">
          <g id="Group_148" data-name="Group 148">
            <path id="Path_9889" data-name="Path 9889" d="M-653.1-2789.077h0l-30.043-.022a4.249,4.249,0,0,1-2.147-.559.673.673,0,0,1-.108-.945.672.672,0,0,1,.946-.108,3.486,3.486,0,0,0,1.334.268l30.02.021a.673.673,0,0,1,.672.674A.673.673,0,0,1-653.1-2789.077Z" transform="translate(685.547 2790.858)" fill="#e82727"/>
          </g>
        </g>
        <g id="Group_151" data-name="Group 151" transform="translate(25.075 1.239)">
          <g id="Group_150" data-name="Group 150">
            <path id="Path_9890" data-name="Path 9890" d="M-618.9-2823.092a.673.673,0,0,1-.622-.416l-.958-2.318a.673.673,0,0,1,.365-.879.673.673,0,0,1,.879.365l.958,2.318a.673.673,0,0,1-.365.879A.69.69,0,0,1-618.9-2823.092Z" transform="translate(620.53 2826.756)" fill="#e82727"/>
          </g>
        </g>
        <g id="Group_153" data-name="Group 153" transform="translate(22.211 2.426)">
          <g id="Group_152" data-name="Group 152">
            <path id="Path_9891" data-name="Path 9891" d="M-629.539-2818.685a.675.675,0,0,1-.622-.416l-.957-2.319a.671.671,0,0,1,.365-.878.672.672,0,0,1,.879.365l.957,2.317a.675.675,0,0,1-.365.88A.69.69,0,0,1-629.539-2818.685Z" transform="translate(631.169 2822.349)" fill="#e82727"/>
          </g>
        </g>
        <g id="Group_155" data-name="Group 155" transform="translate(19.32 3.618)">
          <g id="Group_154" data-name="Group 154">
            <path id="Path_9892" data-name="Path 9892" d="M-640.276-2814.255a.673.673,0,0,1-.622-.416l-.958-2.318a.672.672,0,0,1,.365-.879.672.672,0,0,1,.879.365l.958,2.318a.673.673,0,0,1-.365.879A.691.691,0,0,1-640.276-2814.255Z" transform="translate(641.907 2817.919)" fill="#e82727"/>
          </g>
        </g>
      </g>
    </g>
  </g>
</svg>
