<svg xmlns="http://www.w3.org/2000/svg" width="65" height="65" viewBox="0 0 65 65">
  <g id="Group_344" data-name="Group 344" transform="translate(178 -9224)">
    <rect id="Rectangle_127" data-name="Rectangle 127" width="65" height="65" transform="translate(-178 9224)" fill="none"/>
    <g id="Group_340" data-name="Group 340" transform="translate(-166.857 9229.907)">
      <g id="Group_189" data-name="Group 189" transform="translate(0 0)">
        <g id="Group_158" data-name="Group 158" transform="translate(16.849 1.346)">
          <g id="Group_157" data-name="Group 157">
            <path id="Path_9893" data-name="Path 9893" d="M-934.27-2814.173c-2.51,0-4.477-3.187-4.477-7.253s1.967-7.255,4.477-7.255,4.476,3.187,4.476,7.255S-931.76-2814.173-934.27-2814.173Zm0-13.162c-1.7,0-3.13,2.705-3.13,5.909s1.433,5.907,3.13,5.907,3.13-2.705,3.13-5.907S-932.573-2827.335-934.27-2827.335Z" transform="translate(938.747 2828.682)" fill="#e82727"/>
          </g>
        </g>
        <g id="Group_160" data-name="Group 160" transform="translate(12.885 0)">
          <g id="Group_159" data-name="Group 159">
            <path id="Path_9894" data-name="Path 9894" d="M-945.031-2789.383c-4.675,0-8.44-7.155-8.44-13.078a20.974,20.974,0,0,1,.75-4.83c.163-.687.332-1.4.461-2.094.06-.32.127-.639.194-.957.121-.572.235-1.114.307-1.667a46.312,46.312,0,0,0,.425-5.692,30.889,30.889,0,0,0-.422-4.544l-.06-.418a13.549,13.549,0,0,1-.132-1.9c0-5.2,2.974-9.121,6.918-9.121s6.918,3.921,6.918,9.121a20.3,20.3,0,0,1-.47,3.773,20.484,20.484,0,0,0-.439,3.216c-.072,2.569.008,5.339,1.751,10.936h0a12.9,12.9,0,0,1,.743,4.166C-936.528-2796.542-940.321-2789.383-945.031-2789.383Zm0-42.953c-3.177,0-5.572,3.342-5.572,7.775a12.2,12.2,0,0,0,.119,1.709l.06.418a31.972,31.972,0,0,1,.435,4.743,47.721,47.721,0,0,1-.437,5.856c-.078.6-.2,1.2-.324,1.772-.065.308-.13.615-.188.925-.135.727-.307,1.456-.474,2.158a19.667,19.667,0,0,0-.714,4.52c0,5.171,3.34,11.732,7.094,11.732,3.787,0,7.157-6.566,7.157-11.741a11.594,11.594,0,0,0-.682-3.766h0c-1.8-5.788-1.883-8.793-1.811-11.373a21.831,21.831,0,0,1,.462-3.43,19.009,19.009,0,0,0,.447-3.522C-939.459-2828.994-941.854-2832.336-945.031-2832.336Z" transform="translate(953.471 2833.682)" fill="#e82727"/>
          </g>
        </g>
        <g id="Group_162" data-name="Group 162" transform="translate(17.087 17.669)">
          <g id="Group_161" data-name="Group 161">
            <path id="Path_9895" data-name="Path 9895" d="M-936.092-2764.505a1.789,1.789,0,0,1-.355-.036,1.755,1.755,0,0,1-1.122-.759,1.761,1.761,0,0,1-.258-1.33,1.774,1.774,0,0,1,2.089-1.38,1.772,1.772,0,0,1,1.38,2.09A1.773,1.773,0,0,1-936.092-2764.505Zm0-2.194a.424.424,0,0,0-.416.338.421.421,0,0,0,.062.319.415.415,0,0,0,.268.181.423.423,0,0,0,.5-.33.424.424,0,0,0-.33-.5A.441.441,0,0,0-936.092-2766.7Z" transform="translate(937.863 2768.046)" fill="#e82727"/>
          </g>
        </g>
        <g id="Group_164" data-name="Group 164" transform="translate(21.664 18.605)">
          <g id="Group_163" data-name="Group 163">
            <path id="Path_9896" data-name="Path 9896" d="M-919.088-2761.029a1.719,1.719,0,0,1-.355-.036,1.764,1.764,0,0,1-1.122-.758,1.762,1.762,0,0,1-.257-1.331,1.773,1.773,0,0,1,2.088-1.379,1.757,1.757,0,0,1,1.122.759,1.755,1.755,0,0,1,.257,1.329A1.773,1.773,0,0,1-919.088-2761.029Zm0-2.195a.425.425,0,0,0-.415.339.423.423,0,0,0,.061.32.422.422,0,0,0,.269.181.424.424,0,0,0,.5-.331.419.419,0,0,0-.062-.318.419.419,0,0,0-.269-.181A.4.4,0,0,0-919.089-2763.223Z" transform="translate(920.859 2764.568)" fill="#e82727"/>
          </g>
        </g>
        <g id="Group_166" data-name="Group 166" transform="translate(18.259 18.781)">
          <g id="Group_165" data-name="Group 165">
            <path id="Path_9897" data-name="Path 9897" d="M-928.406-2761.663a.7.7,0,0,1-.136-.014l-4.427-.906a.673.673,0,0,1-.524-.793.672.672,0,0,1,.794-.525l4.427.906a.673.673,0,0,1,.525.795A.674.674,0,0,1-928.406-2761.663Z" transform="translate(933.507 2763.914)" fill="#e82727"/>
          </g>
        </g>
        <g id="Group_168" data-name="Group 168" transform="translate(16.13 22.348)">
          <g id="Group_167" data-name="Group 167">
            <path id="Path_9898" data-name="Path 9898" d="M-939.645-2747.122a1.749,1.749,0,0,1-.355-.036,1.772,1.772,0,0,1-1.38-2.088,1.771,1.771,0,0,1,2.088-1.379,1.755,1.755,0,0,1,1.123.758,1.757,1.757,0,0,1,.257,1.33A1.772,1.772,0,0,1-939.645-2747.122Zm0-2.194a.427.427,0,0,0-.416.34.425.425,0,0,0,.331.5.425.425,0,0,0,.5-.331.421.421,0,0,0-.061-.317.423.423,0,0,0-.269-.183A.442.442,0,0,0-939.646-2749.316Z" transform="translate(941.416 2750.662)" fill="#e82727"/>
          </g>
        </g>
        <g id="Group_170" data-name="Group 170" transform="translate(20.707 23.285)">
          <g id="Group_169" data-name="Group 169">
            <path id="Path_9899" data-name="Path 9899" d="M-922.643-2743.643a1.8,1.8,0,0,1-.355-.036,1.762,1.762,0,0,1-1.123-.76,1.758,1.758,0,0,1-.257-1.33,1.772,1.772,0,0,1,2.088-1.38,1.759,1.759,0,0,1,1.122.76,1.757,1.757,0,0,1,.257,1.33A1.773,1.773,0,0,1-922.643-2743.643Zm0-2.194a.425.425,0,0,0-.415.338.419.419,0,0,0,.062.318.423.423,0,0,0,.269.182.425.425,0,0,0,.5-.33h0a.424.424,0,0,0-.062-.319.426.426,0,0,0-.269-.181A.408.408,0,0,0-922.644-2745.837Z" transform="translate(924.414 2747.184)" fill="#e82727"/>
          </g>
        </g>
        <g id="Group_172" data-name="Group 172" transform="translate(17.302 23.461)">
          <g id="Group_171" data-name="Group 171">
            <path id="Path_9900" data-name="Path 9900" d="M-931.962-2744.278a.642.642,0,0,1-.135-.014l-4.427-.906a.672.672,0,0,1-.525-.793.674.674,0,0,1,.794-.525l4.427.906a.673.673,0,0,1,.524.794A.672.672,0,0,1-931.962-2744.278Z" transform="translate(937.063 2746.53)" fill="#e82727"/>
          </g>
        </g>
        <g id="Group_174" data-name="Group 174" transform="translate(15.173 27.028)">
          <g id="Group_173" data-name="Group 173">
            <path id="Path_9901" data-name="Path 9901" d="M-943.2-2729.737a1.717,1.717,0,0,1-.355-.037,1.758,1.758,0,0,1-1.122-.759,1.758,1.758,0,0,1-.257-1.33,1.773,1.773,0,0,1,2.088-1.38,1.76,1.76,0,0,1,1.123.76,1.756,1.756,0,0,1,.257,1.33A1.774,1.774,0,0,1-943.2-2729.737Zm0-2.194a.423.423,0,0,0-.415.338.421.421,0,0,0,.061.318.422.422,0,0,0,.269.182.425.425,0,0,0,.5-.33h0a.424.424,0,0,0-.061-.319.424.424,0,0,0-.269-.181A.483.483,0,0,0-943.2-2731.931Z" transform="translate(944.973 2733.277)" fill="#e82727"/>
          </g>
        </g>
        <g id="Group_176" data-name="Group 176" transform="translate(19.75 27.964)">
          <g id="Group_175" data-name="Group 175">
            <path id="Path_9902" data-name="Path 9902" d="M-926.2-2726.26a1.68,1.68,0,0,1-.355-.036,1.76,1.76,0,0,1-1.122-.758,1.758,1.758,0,0,1-.257-1.331,1.773,1.773,0,0,1,2.089-1.38,1.772,1.772,0,0,1,1.38,2.09A1.773,1.773,0,0,1-926.2-2726.26Zm0-2.195a.425.425,0,0,0-.415.339.422.422,0,0,0,.062.319.415.415,0,0,0,.269.181.423.423,0,0,0,.5-.329.425.425,0,0,0-.33-.5A.44.44,0,0,0-926.2-2728.454Z" transform="translate(927.97 2729.8)" fill="#e82727"/>
          </g>
        </g>
        <g id="Group_178" data-name="Group 178" transform="translate(16.345 28.14)">
          <g id="Group_177" data-name="Group 177">
            <path id="Path_9903" data-name="Path 9903" d="M-935.516-2726.893a.738.738,0,0,1-.136-.014l-4.427-.906a.673.673,0,0,1-.524-.794.672.672,0,0,1,.794-.524l4.427.9a.674.674,0,0,1,.524.794A.674.674,0,0,1-935.516-2726.893Z" transform="translate(940.617 2729.145)" fill="#e82727"/>
          </g>
        </g>
        <g id="Group_180" data-name="Group 180" transform="translate(0 24.446)">
          <g id="Group_179" data-name="Group 179">
            <path id="Path_9904" data-name="Path 9904" d="M-963.194-2715.9h-33.572a.674.674,0,0,1-.666-.572l-3.9-25.624a.671.671,0,0,1,.564-.766.672.672,0,0,1,.766.564l3.81,25.051h32.416l3.81-25.051a.671.671,0,0,1,.767-.564.672.672,0,0,1,.564.766l-3.9,25.624A.674.674,0,0,1-963.194-2715.9Z" transform="translate(1001.337 2742.869)" fill="#e82727"/>
          </g>
        </g>
        <g id="Group_182" data-name="Group 182" transform="translate(1.152 31.962)">
          <g id="Group_181" data-name="Group 181">
            <path id="Path_9905" data-name="Path 9905" d="M-960.5-2711.325a2.974,2.974,0,0,1-2.108-.871,1.637,1.637,0,0,0-2.313,0,2.987,2.987,0,0,1-4.217,0,1.636,1.636,0,0,0-2.313,0,2.986,2.986,0,0,1-4.216,0,1.622,1.622,0,0,0-1.157-.479,1.622,1.622,0,0,0-1.156.479,2.986,2.986,0,0,1-4.216,0,1.637,1.637,0,0,0-2.313,0,2.985,2.985,0,0,1-4.216,0,1.637,1.637,0,0,0-2.313,0,2.986,2.986,0,0,1-4.216,0l-1.605-1.6a.673.673,0,0,1,0-.952.673.673,0,0,1,.952,0l1.605,1.6a1.638,1.638,0,0,0,2.313,0,2.987,2.987,0,0,1,4.217,0,1.637,1.637,0,0,0,2.313,0,2.986,2.986,0,0,1,4.216,0,1.637,1.637,0,0,0,2.313,0,2.986,2.986,0,0,1,4.216,0,1.638,1.638,0,0,0,2.313,0,2.986,2.986,0,0,1,4.216,0,1.637,1.637,0,0,0,2.313,0,2.986,2.986,0,0,1,4.216,0,1.638,1.638,0,0,0,2.313,0l1.473-1.473a.674.674,0,0,1,.951,0,.674.674,0,0,1,0,.952l-1.473,1.473A2.975,2.975,0,0,1-960.5-2711.325Z" transform="translate(997.059 2714.949)" fill="#e82727"/>
          </g>
        </g>
        <g id="Group_184" data-name="Group 184" transform="translate(28.111 39.868)">
          <g id="Group_183" data-name="Group 183">
            <path id="Path_9906" data-name="Path 9906" d="M-894.476-2680.712a2.437,2.437,0,0,1-2.433-2.433,2.437,2.437,0,0,1,2.433-2.435,2.437,2.437,0,0,1,2.433,2.435A2.437,2.437,0,0,1-894.476-2680.712Zm0-3.522a1.09,1.09,0,0,0-1.088,1.089,1.089,1.089,0,0,0,1.088,1.087,1.089,1.089,0,0,0,1.087-1.087A1.09,1.09,0,0,0-894.476-2684.234Z" transform="translate(896.91 2685.58)" fill="#e82727"/>
          </g>
        </g>
        <g id="Group_186" data-name="Group 186" transform="translate(25.145 44.674)">
          <g id="Group_185" data-name="Group 185">
            <path id="Path_9907" data-name="Path 9907" d="M-906.248-2664.367a1.681,1.681,0,0,1-1.679-1.679,1.68,1.68,0,0,1,1.679-1.679,1.68,1.68,0,0,1,1.679,1.679A1.681,1.681,0,0,1-906.248-2664.367Zm0-2.012a.333.333,0,0,0-.333.333.333.333,0,0,0,.333.333.333.333,0,0,0,.332-.333A.333.333,0,0,0-906.248-2666.378Z" transform="translate(907.927 2667.725)" fill="#e82727"/>
          </g>
        </g>
        <g id="Group_188" data-name="Group 188" transform="translate(6.535 24.967)">
          <g id="Group_187" data-name="Group 187">
            <path id="Path_9908" data-name="Path 9908" d="M-975.381-2737.577a1.681,1.681,0,0,1-1.679-1.679,1.681,1.681,0,0,1,1.679-1.679,1.681,1.681,0,0,1,1.679,1.679A1.681,1.681,0,0,1-975.381-2737.577Zm0-2.012a.334.334,0,0,0-.333.333.334.334,0,0,0,.333.333.334.334,0,0,0,.333-.333A.334.334,0,0,0-975.381-2739.589Z" transform="translate(977.06 2740.935)" fill="#e82727"/>
          </g>
        </g>
      </g>
    </g>
  </g>
</svg>
