<svg xmlns="http://www.w3.org/2000/svg" width="65" height="65" viewBox="0 0 65 65">
  <g id="Group_342" data-name="Group 342" transform="translate(281 -9224)">
    <rect id="Rectangle_125" data-name="Rectangle 125" width="65" height="65" transform="translate(-281 9224)" fill="none"/>
    <g id="Group_338" data-name="Group 338" transform="translate(-281 9237)">
      <g id="Group_232" data-name="Group 232" transform="translate(11.493 9.702)">
        <g id="Group_228" data-name="Group 228" transform="translate(0 0)">
          <path id="Path_9923" data-name="Path 9923" d="M-1583.115-2757.7h-.353a.327.327,0,0,1-.326-.327v-6.048a.327.327,0,0,1,.326-.327h3.36a.327.327,0,0,1,.326.327v.353a.326.326,0,0,1-.326.326h-2.681v1.843h2.177a.326.326,0,0,1,.326.326v.354a.326.326,0,0,1-.326.326h-2.177v2.522A.326.326,0,0,1-1583.115-2757.7Z" transform="translate(1583.794 2764.406)" fill="#e82727"/>
        </g>
        <g id="Group_229" data-name="Group 229" transform="translate(4.956 0)">
          <path id="Path_9924" data-name="Path 9924" d="M-1560.847-2757.7h-.42a.327.327,0,0,1-.293-.184l-1.083-2.237h-1.733v2.094a.326.326,0,0,1-.326.327h-.353a.327.327,0,0,1-.326-.327v-6.048a.327.327,0,0,1,.326-.327h2.227c.066,0,.134,0,.2.007a2.314,2.314,0,0,1,.243.031,1.933,1.933,0,0,1,.9.381,2,2,0,0,1,.592.752,2.318,2.318,0,0,1,.2.97,2.214,2.214,0,0,1-.415,1.326,1.89,1.89,0,0,1-.55.511l1.1,2.254a.325.325,0,0,1-.017.315A.325.325,0,0,1-1560.847-2757.7Zm-3.53-3.426h1.547c.04,0,.088,0,.143-.007s.114-.012.173-.022a.86.86,0,0,0,.424-.2,1.006,1.006,0,0,0,.272-.388,1.36,1.36,0,0,0,.1-.518,1.359,1.359,0,0,0-.1-.518,1,1,0,0,0-.272-.389.873.873,0,0,0-.431-.2,1.067,1.067,0,0,0-.159-.023c-.059,0-.108-.005-.15-.005h-1.547Z" transform="translate(1565.382 2764.406)" fill="#e82727"/>
        </g>
        <g id="Group_230" data-name="Group 230" transform="translate(10.929 0)">
          <path id="Path_9925" data-name="Path 9925" d="M-1539.171-2757.7h-3.7a.326.326,0,0,1-.326-.327v-6.048a.326.326,0,0,1,.326-.327h3.7a.326.326,0,0,1,.326.327v.353a.326.326,0,0,1-.326.326h-3.017v1.843h2.513a.326.326,0,0,1,.326.326v.354a.326.326,0,0,1-.326.326h-2.513v1.843h3.017a.326.326,0,0,1,.326.327v.352A.326.326,0,0,1-1539.171-2757.7Z" transform="translate(1543.193 2764.406)" fill="#e82727"/>
        </g>
        <g id="Group_231" data-name="Group 231" transform="translate(16.474 0)">
          <path id="Path_9926" data-name="Path 9926" d="M-1518.573-2757.7h-3.7a.327.327,0,0,1-.326-.327v-6.048a.327.327,0,0,1,.326-.327h3.7a.326.326,0,0,1,.326.327v.353a.326.326,0,0,1-.326.326h-3.018v1.843h2.513a.326.326,0,0,1,.326.326v.354a.326.326,0,0,1-.326.326h-2.513v1.843h3.018a.326.326,0,0,1,.326.327v.352A.326.326,0,0,1-1518.573-2757.7Z" transform="translate(1522.596 2764.406)" fill="#e82727"/>
        </g>
      </g>
      <g id="Group_234" data-name="Group 234" transform="translate(18.364 22.09)">
        <g id="Group_233" data-name="Group 233" transform="translate(0 0)">
          <path id="Path_9927" data-name="Path 9927" d="M-1552.838-2707.521a5.439,5.439,0,0,1-5.433-5.433,5.439,5.439,0,0,1,5.433-5.433,5.439,5.439,0,0,1,5.433,5.433A5.439,5.439,0,0,1-1552.838-2707.521Zm0-9.521a4.092,4.092,0,0,0-4.087,4.087,4.092,4.092,0,0,0,4.087,4.087,4.091,4.091,0,0,0,4.087-4.087A4.092,4.092,0,0,0-1552.838-2717.041Z" transform="translate(1558.271 2718.387)" fill="#e82727"/>
        </g>
      </g>
      <g id="Group_236" data-name="Group 236" transform="translate(41.55 22.09)">
        <g id="Group_235" data-name="Group 235" transform="translate(0 0)">
          <path id="Path_9928" data-name="Path 9928" d="M-1466.706-2707.521a5.439,5.439,0,0,1-5.433-5.433,5.439,5.439,0,0,1,5.433-5.433,5.439,5.439,0,0,1,5.433,5.433A5.439,5.439,0,0,1-1466.706-2707.521Zm0-9.521a4.092,4.092,0,0,0-4.087,4.087,4.092,4.092,0,0,0,4.087,4.087,4.091,4.091,0,0,0,4.087-4.087A4.091,4.091,0,0,0-1466.706-2717.041Z" transform="translate(1472.139 2718.387)" fill="#e82727"/>
        </g>
      </g>
      <g id="Group_238" data-name="Group 238" transform="translate(11.267 23.474)">
        <g id="Group_237" data-name="Group 237" transform="translate(0 0)">
          <path id="Path_9929" data-name="Path 9929" d="M-1577.245-2708.523h-3.341a4.054,4.054,0,0,1-4.049-4.049.673.673,0,0,1,.672-.673.673.673,0,0,1,.673.673,2.706,2.706,0,0,0,2.7,2.7h3.341a.673.673,0,0,1,.673.673A.673.673,0,0,1-1577.245-2708.523Z" transform="translate(1584.635 2713.245)" fill="#e82727"/>
        </g>
      </g>
      <g id="Group_240" data-name="Group 240" transform="translate(29.81 25.991)">
        <g id="Group_239" data-name="Group 239" transform="translate(0 0)">
          <path id="Path_9930" data-name="Path 9930" d="M-1503.736-2702.548h-11.34a.673.673,0,0,1-.673-.673.673.673,0,0,1,.673-.673h11.34a.673.673,0,0,1,.673.673A.673.673,0,0,1-1503.736-2702.548Z" transform="translate(1515.749 2703.893)" fill="#e82727"/>
        </g>
      </g>
      <g id="Group_242" data-name="Group 242" transform="translate(11.267 0)">
        <g id="Group_241" data-name="Group 241" transform="translate(0 0)">
          <path id="Path_9931" data-name="Path 9931" d="M-1537.678-2772.251h-4.428a.672.672,0,0,1-.673-.673.673.673,0,0,1,.673-.674h4.428a2.046,2.046,0,0,0,2.045-2.043v-7.038a2.039,2.039,0,0,0-.9-1.693l-5.237-3.541a3.406,3.406,0,0,1-1.026-1.094l-5.776-9.142a2.037,2.037,0,0,0-1.729-.953h-30.944a2.047,2.047,0,0,0-2.044,2.044v3.068a.673.673,0,0,1-.673.673.673.673,0,0,1-.672-.673v-3.068a3.394,3.394,0,0,1,3.39-3.39h30.944a3.371,3.371,0,0,1,2.866,1.58l5.789,9.16a2.085,2.085,0,0,0,.631.68l5.236,3.54a3.387,3.387,0,0,1,1.492,2.808v7.038A3.4,3.4,0,0,1-1537.678-2772.251Z" transform="translate(1584.635 2800.447)" fill="#e82727"/>
        </g>
      </g>
      <g id="Group_244" data-name="Group 244" transform="translate(36.938 3.037)">
        <g id="Group_243" data-name="Group 243" transform="translate(0 0)">
          <path id="Path_9932" data-name="Path 9932" d="M-1478.43-2781.018h-9.09a1.754,1.754,0,0,1-1.751-1.752v-5.72a.673.673,0,0,1,.673-.673h6.032a3.4,3.4,0,0,1,2.91,1.651l2.706,3.806.032.05a1.732,1.732,0,0,1,.008,1.756A1.731,1.731,0,0,1-1478.43-2781.018Zm-9.5-6.8v5.047a.407.407,0,0,0,.406.406h9.09a.4.4,0,0,0,.352-.2.4.4,0,0,0,.01-.386l-2.7-3.8c-.011-.016-.022-.032-.032-.049a2.054,2.054,0,0,0-1.765-1.013Z" transform="translate(1489.272 2789.163)" fill="#e82727"/>
        </g>
      </g>
      <g id="Group_246" data-name="Group 246" transform="translate(0 21.321)">
        <g id="Group_245" data-name="Group 245" transform="translate(0 0)">
          <path id="Path_9933" data-name="Path 9933" d="M-1610.383-2719.9h-15.434a.673.673,0,0,1-.673-.673.672.672,0,0,1,.673-.673h15.434a.672.672,0,0,1,.673.673A.673.673,0,0,1-1610.383-2719.9Z" transform="translate(1626.49 2721.241)" fill="#e82727"/>
        </g>
      </g>
      <g id="Group_248" data-name="Group 248" transform="translate(1.43 16.692)">
        <g id="Group_247" data-name="Group 247">
          <path id="Path_9934" data-name="Path 9934" d="M-1613.43-2737.095h-7.074a.673.673,0,0,1-.673-.671.674.674,0,0,1,.673-.674h7.074a.674.674,0,0,1,.673.674A.673.673,0,0,1-1613.43-2737.095Z" transform="translate(1621.178 2738.44)" fill="#e82727"/>
        </g>
      </g>
      <g id="Group_250" data-name="Group 250" transform="translate(37.197 15.404)">
        <g id="Group_249" data-name="Group 249">
          <path id="Path_9935" data-name="Path 9935" d="M-1485.6-2741.878h-2.038a.673.673,0,0,1-.673-.673.673.673,0,0,1,.673-.673h2.038a.673.673,0,0,1,.673.673A.673.673,0,0,1-1485.6-2741.878Z" transform="translate(1488.311 2743.224)" fill="#e82727"/>
        </g>
      </g>
      <g id="Group_252" data-name="Group 252" transform="translate(2.774 19.006)">
        <g id="Group_251" data-name="Group 251" transform="translate(0 0)">
          <path id="Path_9936" data-name="Path 9936" d="M-1599.183-2728.494h-16.33a.674.674,0,0,1-.673-.674.673.673,0,0,1,.673-.673h16.33a.673.673,0,0,1,.673.673A.674.674,0,0,1-1599.183-2728.494Z" transform="translate(1616.185 2729.842)" fill="#e82727"/>
        </g>
      </g>
      <g id="Group_254" data-name="Group 254" transform="translate(21.97 25.695)">
        <g id="Group_253" data-name="Group 253" transform="translate(0 0)">
          <path id="Path_9937" data-name="Path 9937" d="M-1543.049-2701.338a1.83,1.83,0,0,1-1.828-1.827,1.83,1.83,0,0,1,1.828-1.828,1.829,1.829,0,0,1,1.827,1.828A1.829,1.829,0,0,1-1543.049-2701.338Zm0-2.309a.482.482,0,0,0-.481.482.481.481,0,0,0,.481.481.482.482,0,0,0,.481-.481A.483.483,0,0,0-1543.049-2703.647Z" transform="translate(1544.877 2704.993)" fill="#e82727"/>
        </g>
      </g>
      <g id="Group_256" data-name="Group 256" transform="translate(45.155 25.695)">
        <g id="Group_255" data-name="Group 255" transform="translate(0 0)">
          <path id="Path_9938" data-name="Path 9938" d="M-1456.918-2701.338a1.829,1.829,0,0,1-1.828-1.827,1.829,1.829,0,0,1,1.828-1.828,1.83,1.83,0,0,1,1.828,1.828A1.83,1.83,0,0,1-1456.918-2701.338Zm0-2.309a.483.483,0,0,0-.482.482.482.482,0,0,0,.482.481.482.482,0,0,0,.481-.481A.483.483,0,0,0-1456.918-2703.647Z" transform="translate(1458.746 2704.993)" fill="#e82727"/>
        </g>
      </g>
      <g id="Group_260" data-name="Group 260" transform="translate(9.285 32.207)">
        <g id="Group_257" data-name="Group 257" transform="translate(0 0)">
          <path id="Path_9939" data-name="Path 9939" d="M-1591.327-2677.342a.674.674,0,0,1-.664-.568.674.674,0,0,1,.559-.771,170.522,170.522,0,0,1,27.764-2.12.673.673,0,0,1,.67.676.673.673,0,0,1-.673.67h0a168.9,168.9,0,0,0-27.546,2.1A.725.725,0,0,1-1591.327-2677.342Z" transform="translate(1591.999 2680.802)" fill="#e82727"/>
        </g>
        <g id="Group_258" data-name="Group 258" transform="translate(30.418 0.073)">
          <path id="Path_9940" data-name="Path 9940" d="M-1462.588-2677.807a.622.622,0,0,1-.095-.006,145.7,145.7,0,0,0-15.666-1.374.673.673,0,0,1-.652-.695.673.673,0,0,1,.694-.651,147.51,147.51,0,0,1,15.811,1.387.671.671,0,0,1,.572.76A.672.672,0,0,1-1462.588-2677.807Z" transform="translate(1479 2680.532)" fill="#e82727"/>
        </g>
        <g id="Group_259" data-name="Group 259" transform="translate(8.767 2.54)">
          <path id="Path_9941" data-name="Path 9941" d="M-1513.155-2667.217a.747.747,0,0,1-.126-.013,156.849,156.849,0,0,0-45.409-1.985.674.674,0,0,1-.737-.6.674.674,0,0,1,.6-.737,158.237,158.237,0,0,1,45.794,2,.673.673,0,0,1,.536.786A.675.675,0,0,1-1513.155-2667.217Z" transform="translate(1559.431 2671.369)" fill="#e82727"/>
        </g>
      </g>
    </g>
  </g>
</svg>
