<?xml version="1.0" encoding="UTF-8"?>
<svg width="44px" height="53px" viewBox="0 0 44 53" version="1.1" xmlns="http://www.w3.org/2000/svg" xmlns:xlink="http://www.w3.org/1999/xlink">
    <!-- Generator: Sketch 57.1 (83088) - https://sketch.com -->
    <title>30 Days Return_Logo</title>
    <desc>Created with Sketch.</desc>
    <g id="Page-1" stroke="none" stroke-width="1" fill="none" fill-rule="evenodd">
        <g id="30-Days-Return_Logo" fill="#FF0009" fill-rule="nonzero">
            <path d="M34.23,34.6 C34.09,34.6 33.95,34.53 33.88,34.4 C33.76,34.21 33.83,33.95 34.02,33.84 C38.95,30.91 42.01,25.53 42.01,19.8 C42.01,10.8 34.69,3.48 25.69,3.48 L6.83,3.48 C6.6,3.48 6.42,3.3 6.42,3.07 L6.42,1.56 L1.65,5.76 L6.42,9.96 L6.42,8.44 C6.42,8.21 6.6,8.03 6.83,8.03 L25.8,8.03 C32.28,8.03 37.56,13.31 37.56,19.79 C37.56,23.46 35.89,26.86 32.98,29.1 C32.8,29.24 32.54,29.21 32.4,29.03 C32.26,28.85 32.29,28.59 32.47,28.45 C35.18,26.36 36.73,23.2 36.73,19.79 C36.73,13.76 31.82,8.85 25.79,8.85 L7.23,8.85 L7.23,10.87 C7.23,11.03 7.13,11.18 6.99,11.24 C6.84,11.31 6.67,11.28 6.55,11.17 L0.75,6.06 C0.66,5.98 0.61,5.87 0.61,5.75 C0.61,5.63 0.66,5.52 0.75,5.44 L6.55,0.33 C6.67,0.22 6.84,0.2 6.99,0.26 C7.14,0.33 7.23,0.47 7.23,0.63 L7.23,2.64 L25.68,2.64 C35.13,2.64 42.82,10.33 42.82,19.78 C42.82,25.8 39.6,31.44 34.43,34.52 L34.22,34.58" id="Path"></path>
            <path d="M29.54,52.29 C28.08,52.29 26.63,51.8 25.48,50.9 C25.3,50.76 25.27,50.5 25.41,50.32 C25.55,50.14 25.81,50.11 25.99,50.25 C27,51.04 28.26,51.47 29.55,51.47 L39.39,51.47 C39.47,51.46 42.58,51 42.71,47.6 C42.9,42.87 40.9,40.34 36.77,40.1 C33.67,39.57 33,37.87 32.08,35.52 C31.98,35.27 31.88,35.01 31.77,34.74 L26.69,22.64 C25.4,23.23 21.34,24.79 18.58,22.7 L18.19,22.4 C15.49,20.36 13.36,18.74 14.46,15.19 C14.46,15.16 14.84,14.14 14.59,13.21 C14.49,12.85 14.23,12.59 13.86,12.49 C13.48,12.39 13.08,12.49 12.81,12.78 L1.91,23.87 C1.3,24.49 1.31,25.49 1.91,26.1 L2.6,26.8 C2.76,26.96 2.76,27.22 2.6,27.38 C2.44,27.54 2.18,27.54 2.02,27.38 L1.33,26.68 C0.4,25.75 0.4,24.23 1.33,23.29 L12.23,12.2 C12.71,11.71 13.41,11.52 14.08,11.7 C14.73,11.87 15.22,12.36 15.39,13 C15.71,14.19 15.27,15.41 15.25,15.46 C14.32,18.44 15.97,19.68 18.7,21.75 L19.09,22.05 C21.92,24.2 26.67,21.75 26.72,21.73 C26.82,21.68 26.94,21.67 27.05,21.71 C27.16,21.75 27.24,21.83 27.29,21.94 L32.53,34.44 C32.64,34.72 32.75,34.98 32.84,35.23 C33.76,37.57 34.27,38.86 36.86,39.3 C41.41,39.56 43.73,42.45 43.52,47.64 C43.36,51.75 39.47,52.29 39.43,52.3 L29.54,52.3 L29.54,52.29 Z" id="Path"></path>
            <path d="M8,27.49 C7.9,27.49 7.79,27.45 7.71,27.37 L2.81,22.48 C2.65,22.32 2.65,22.06 2.81,21.9 C2.97,21.74 3.23,21.74 3.39,21.9 L8.29,26.79 C8.45,26.95 8.45,27.21 8.29,27.37 C8.21,27.45 8.1,27.49 8,27.49" id="Path"></path>
            <path d="M42.96,48.16 L30.75,48.16 C29.32,48.16 27.98,47.6 26.96,46.59 L25.69,45.32 C25.53,45.16 25.53,44.9 25.69,44.74 C25.85,44.58 26.11,44.58 26.27,44.74 L27.54,46.01 C28.4,46.87 29.54,47.34 30.74,47.34 L42.95,47.34 C43.18,47.34 43.36,47.52 43.36,47.75 C43.36,47.98 43.18,48.16 42.95,48.16" id="Path"></path>
            <path d="M25.53,27.95 L28.79,26.59" id="Path"></path>
            <path d="M25.53,28.36 C25.37,28.36 25.22,28.27 25.15,28.11 C25.06,27.9 25.16,27.66 25.37,27.57 L28.63,26.22 C28.84,26.13 29.08,26.23 29.17,26.44 C29.26,26.65 29.16,26.89 28.95,26.98 L25.69,28.33 L25.53,28.36" id="Path"></path>
            <path d="M27.1,32.3 L30.56,30.86" id="Path"></path>
            <path d="M27.1,32.71 C26.94,32.71 26.79,32.62 26.72,32.46 C26.63,32.25 26.73,32.01 26.94,31.92 L30.39,30.49 C30.6,30.4 30.84,30.5 30.93,30.71 C31.02,30.92 30.92,31.16 30.71,31.25 L27.26,32.68 L27.1,32.71" id="Path"></path>
            <path d="M28.89,36.6 L32.35,35.17" id="Path"></path>
            <path d="M28.89,37.01 C28.73,37.01 28.58,36.92 28.51,36.76 C28.42,36.55 28.52,36.31 28.73,36.22 L32.18,34.79 C32.39,34.7 32.63,34.8 32.72,35.01 C32.81,35.22 32.71,35.46 32.5,35.55 L29.05,36.98 L28.89,37.01" id="Path"></path>
            <path d="M23.88,52.29 L2.95,52.29 C1.68,52.29 0.65,51.26 0.65,49.99 L0.65,29.06 C0.65,27.79 1.68,26.76 2.95,26.76 L23.88,26.76 C25.15,26.76 26.18,27.79 26.18,29.06 L26.18,49.99 C26.18,51.26 25.15,52.29 23.88,52.29 L23.88,52.29 Z M2.95,27.59 C2.14,27.59 1.47,28.25 1.47,29.07 L1.47,50 C1.47,50.81 2.13,51.48 2.95,51.48 L23.88,51.48 C24.69,51.48 25.36,50.82 25.36,50 L25.36,29.07 C25.36,28.26 24.7,27.59 23.88,27.59 L2.95,27.59 Z" id="Shape"></path>
            <path d="M9.03,41.95 C8.5,41.95 8.01,41.85 7.54,41.64 C7.07,41.43 6.67,41.15 6.32,40.77 C5.98,40.39 5.73,39.95 5.58,39.44 L7.28,38.98 C7.4,39.4 7.62,39.72 7.95,39.95 C8.27,40.18 8.63,40.29 9.02,40.28 C9.37,40.28 9.68,40.2 9.95,40.04 C10.22,39.88 10.44,39.66 10.59,39.39 C10.75,39.11 10.82,38.81 10.82,38.47 C10.82,37.95 10.65,37.51 10.32,37.16 C9.98,36.81 9.55,36.63 9.02,36.63 C8.86,36.63 8.7,36.65 8.55,36.7 C8.4,36.74 8.25,36.8 8.11,36.88 L7.31,35.49 L10.85,32.46 L11,32.88 L5.99,32.88 L5.99,31.22 L12.45,31.22 L12.45,32.89 L9.61,35.63 L9.59,35.11 C10.23,35.15 10.77,35.33 11.22,35.64 C11.67,35.95 12.02,36.35 12.26,36.85 C12.5,37.34 12.62,37.88 12.62,38.47 C12.62,39.13 12.46,39.73 12.13,40.25 C11.81,40.78 11.37,41.19 10.83,41.5 C10.29,41.8 9.69,41.96 9.03,41.96" id="Path"></path>
            <path d="M17.14,41.97 C16.39,41.97 15.74,41.81 15.16,41.49 C14.59,41.17 14.14,40.73 13.83,40.15 C13.51,39.58 13.35,38.92 13.35,38.18 L13.35,34.79 C13.35,34.04 13.51,33.39 13.83,32.82 C14.15,32.25 14.59,31.8 15.16,31.48 C15.73,31.16 16.39,31 17.14,31 C17.89,31 18.54,31.16 19.11,31.48 C19.68,31.8 20.12,32.24 20.45,32.82 C20.77,33.39 20.93,34.05 20.93,34.79 L20.93,38.18 C20.93,38.93 20.77,39.58 20.45,40.15 C20.13,40.72 19.68,41.17 19.11,41.49 C18.54,41.81 17.89,41.97 17.14,41.97 M17.14,40.29 C17.51,40.29 17.85,40.2 18.15,40.02 C18.45,39.84 18.69,39.6 18.87,39.3 C19.05,39 19.13,38.67 19.13,38.29 L19.13,34.64 C19.13,34.26 19.04,33.93 18.87,33.63 C18.69,33.33 18.46,33.09 18.15,32.91 C17.85,32.73 17.51,32.64 17.14,32.64 C16.77,32.64 16.43,32.73 16.13,32.91 C15.83,33.09 15.59,33.33 15.41,33.63 C15.23,33.93 15.15,34.27 15.15,34.64 L15.15,38.29 C15.15,38.66 15.24,39 15.41,39.3 C15.58,39.6 15.82,39.84 16.13,40.02 C16.43,40.2 16.77,40.29 17.14,40.29" id="Shape"></path>
            <path d="M5.67,47.9 L5.67,43.59 L7.06,43.59 C7.06,43.59 7.16,43.59 7.27,43.59 C7.38,43.59 7.48,43.59 7.58,43.61 C7.93,43.65 8.22,43.77 8.46,43.97 C8.7,44.17 8.88,44.42 9.01,44.73 C9.13,45.04 9.2,45.37 9.2,45.74 C9.2,46.11 9.14,46.44 9.01,46.75 C8.88,47.06 8.7,47.31 8.46,47.51 C8.22,47.71 7.92,47.83 7.58,47.87 C7.48,47.88 7.38,47.89 7.27,47.89 C7.16,47.89 7.09,47.89 7.06,47.89 L5.67,47.89 L5.67,47.9 Z M6.5,47.13 L7.07,47.13 C7.12,47.13 7.2,47.13 7.29,47.13 C7.38,47.13 7.46,47.12 7.54,47.1 C7.73,47.06 7.88,46.97 8,46.84 C8.12,46.7 8.21,46.54 8.26,46.34 C8.32,46.15 8.34,45.95 8.34,45.74 C8.34,45.53 8.31,45.32 8.25,45.13 C8.19,44.94 8.1,44.77 7.98,44.64 C7.86,44.51 7.71,44.42 7.53,44.39 C7.46,44.37 7.37,44.36 7.28,44.36 C7.19,44.36 7.11,44.36 7.06,44.36 L6.49,44.36 L6.49,47.14 L6.5,47.13 Z" id="Shape"></path>
            <path d="M9.62,47.9 L10.94,43.59 L12.16,43.59 L13.48,47.9 L12.64,47.9 L11.47,44.1 L11.63,44.1 L10.48,47.9 L9.64,47.9 L9.62,47.9 Z M10.41,46.24 L12.68,46.24 L12.68,47 L10.41,47 L10.41,46.24 Z" id="Shape"></path>
            <polygon id="Path" points="14.82 47.9 14.82 46.14 13.35 43.59 14.3 43.59 15.24 45.21 16.17 43.59 17.12 43.59 15.65 46.14 15.65 47.9"></polygon>
            <path d="M19.11,47.99 C18.79,47.99 18.5,47.93 18.25,47.82 C17.99,47.71 17.78,47.55 17.62,47.33 C17.46,47.12 17.35,46.87 17.31,46.58 L18.16,46.45 C18.22,46.7 18.34,46.89 18.53,47.02 C18.72,47.15 18.93,47.22 19.17,47.22 C19.3,47.22 19.43,47.2 19.56,47.16 C19.69,47.12 19.79,47.06 19.87,46.97 C19.95,46.89 19.99,46.79 19.99,46.67 L19.97,46.54 L19.91,46.43 L19.78,46.33 C19.72,46.3 19.66,46.27 19.57,46.24 L18.45,45.91 C18.37,45.89 18.27,45.85 18.16,45.81 C18.05,45.77 17.94,45.7 17.84,45.62 C17.74,45.54 17.65,45.43 17.58,45.3 C17.51,45.17 17.48,45 17.48,44.79 C17.48,44.5 17.55,44.26 17.7,44.07 C17.85,43.88 18.04,43.74 18.28,43.64 C18.52,43.55 18.79,43.5 19.09,43.5 C19.39,43.5 19.65,43.55 19.89,43.65 C20.12,43.75 20.32,43.89 20.48,44.08 C20.64,44.27 20.75,44.5 20.82,44.76 L19.94,44.91 C19.91,44.77 19.85,44.65 19.76,44.56 C19.67,44.47 19.57,44.39 19.45,44.34 C19.33,44.29 19.21,44.26 19.08,44.26 C18.95,44.26 18.83,44.27 18.72,44.31 C18.61,44.35 18.51,44.41 18.44,44.48 C18.37,44.55 18.33,44.64 18.33,44.74 C18.33,44.83 18.36,44.91 18.42,44.97 C18.48,45.03 18.55,45.08 18.64,45.11 C18.73,45.15 18.82,45.18 18.91,45.2 L19.66,45.4 C19.77,45.43 19.9,45.47 20.03,45.52 C20.17,45.57 20.3,45.64 20.42,45.72 C20.54,45.81 20.65,45.92 20.73,46.06 C20.81,46.2 20.85,46.38 20.85,46.6 C20.85,46.83 20.8,47.03 20.7,47.21 C20.6,47.38 20.47,47.52 20.31,47.64 C20.15,47.75 19.96,47.84 19.75,47.89 C19.54,47.95 19.33,47.97 19.11,47.97" id="Path"></path>
        </g>
    </g>
</svg>