<svg width="37" height="37" viewBox="0 0 26 26" fill="none" xmlns="http://www.w3.org/2000/svg" id="circle">
            <g id="svg-next">
            <circle id="progress" opacity="1" cx="13" cy="13" r="12.5"></circle>
            <circle class="circle-border" id="Ellipse 74" opacity="0.6" cx="13" cy="13" r="12.5" transform="matrix(-1 0 0 1 26 0)"></circle>
            <path class="arrow-path" id="Vector" d="M11.4716 8.2335C11.1358 7.91788 10.6021 7.92308 10.2717 8.24392C9.94226 8.56578 9.9369 9.08555 10.261 9.41264L13.9347 12.9896L10.2621 16.5666H10.261C10.0963 16.7218 10.0022 16.9354 10 17.1594C9.9979 17.3823 10.0888 17.5979 10.2503 17.7562C10.4129 17.9135 10.6342 18.002 10.8631 18C11.0931 17.9979 11.3123 17.9062 11.4717 17.7458L15.7497 13.5792C16.0834 13.2532 16.0834 12.7261 15.7497 12.4001L11.4716 8.2335Z"></path>
            </g>
          </svg>