<svg width="37" height="37" viewBox="0 0 26 26" fill="none" xmlns="http://www.w3.org/2000/svg">
            <g id="svg-prev">
            <circle class="circle-border" id="Ellipse 74" opacity="0.6" cx="13" cy="13" r="12.5" transform="matrix(-1 0 0 1 26 0)"></circle>
            <path class="arrow-path" id="Vector" d="M14.5284 8.2335C14.8642 7.91788 15.3979 7.92308 15.7283 8.24392C16.0577 8.56578 16.0631 9.08555 15.739 9.41264L12.0653 12.9896L15.7379 16.5666H15.739C15.9037 16.7218 15.9978 16.9354 16 17.1594C16.0021 17.3823 15.9112 17.5979 15.7497 17.7562C15.5871 17.9135 15.3658 18.002 15.1369 18C14.9069 17.9979 14.6877 17.9062 14.5283 17.7458L10.2503 13.5792C9.91657 13.2532 9.91657 12.7261 10.2503 12.4001L14.5284 8.2335Z"></path>
            </g>
          </svg>