<svg xmlns="http://www.w3.org/2000/svg" class="icon icon-filter" width="18" height="20" viewBox="0 0 18 20" fill="none">
<path fill-rule="evenodd" clip-rule="evenodd" d="M0.466369 0C0.45877 0.00221858 0.451501 0.00459552 0.444067 0.00713107C0.429199 0.00887427 0.41433 0.0110929 0.399626 0.0142623C0.353367 0.0220276 0.308436 0.03629 0.266474 0.0567338C0.104741 0.132326 0.00165362 0.289055 0 0.461472V2.32873C0.000495621 2.42286 0.0315534 2.51477 0.0888808 2.59132L6.38745 10.8625V19.5454C6.38728 19.72 6.49169 19.8795 6.65574 19.9551C6.81995 20.0308 7.01489 20.0096 7.15711 19.9004L11.435 16.6346C11.5473 16.5482 11.6127 16.4177 11.6126 16.2796V10.8629L17.9111 2.59174V2.59158C17.9684 2.51504 17.9995 2.42313 18 2.32899V0.461731C18.0003 0.334796 17.9455 0.213564 17.8483 0.127197C17.7514 0.0409888 17.6212 -0.00259012 17.4894 0.00739385H0.562781C0.531062 0.00184729 0.498848 -0.000529684 0.466634 0.000262624L0.466369 0ZM0.947442 0.915799H17.0523V2.17943L10.7537 10.4506V10.4508C10.6964 10.5273 10.6653 10.619 10.6648 10.7133V16.0591L7.33433 18.6006V10.7129V10.713C7.33384 10.6187 7.30278 10.527 7.24545 10.4504L0.946884 2.17926V0.915629L0.947442 0.915799Z" fill="black"></path>
</svg>